<svg width="720" height="308" viewBox="0 0 720 308" fill="none" xmlns="http://www.w3.org/2000/svg">
<path d="M-548.557 266.286C-439.257 243.035 -274.897 220.058 -78.5668 241.667C54.3693 256.302 99.0457 280.099 213.811 296.374C462.605 331.797 618.221 272.303 812.228 240.3C987.245 211.442 1241.37 196.945 1571.86 270.389" stroke="#D0D0D0" stroke-miterlimit="10"/>
<path d="M-741.197 165.489C-631.897 142.238 -467.537 119.261 -271.207 140.871C-138.271 155.505 -93.5949 179.302 21.1701 195.577C269.964 231 425.58 171.506 619.587 139.503C794.604 110.645 1048.73 96.1476 1379.22 169.592" stroke="#D0D0D0" stroke-miterlimit="10"/>
<path d="M-548.557 223.068C-439.257 199.817 -274.897 176.84 -78.5668 198.45C54.3693 213.084 99.0457 236.881 213.811 253.157C462.605 288.579 618.221 229.086 812.228 197.082C987.245 168.224 1241.37 153.727 1571.86 227.171" stroke="#D0D0D0" stroke-miterlimit="10"/>
<path d="M-741.197 107.909C-631.897 84.659 -467.537 61.6821 -271.207 83.2913C-138.271 97.9254 -93.5949 121.723 21.1701 137.998C269.964 173.421 425.58 113.927 619.587 81.9237C794.604 53.0658 1048.59 72.2132 1396.98 102.302" stroke="#D0D0D0" stroke-miterlimit="10"/>
<path d="M-723.436 251.925C-614.136 228.675 -449.776 205.698 -253.446 227.307C-120.51 241.941 -75.8332 265.739 38.9318 282.014C287.726 317.437 443.342 257.943 637.349 225.939C812.366 197.081 1066.49 182.584 1396.98 256.028" stroke="#D0D0D0" stroke-miterlimit="10"/>
<path d="M-741.197 136.63C-631.897 113.38 -467.537 90.4029 -271.207 112.012C-138.271 126.646 -93.5949 150.444 21.1701 166.719C269.964 202.142 425.58 142.648 619.587 110.644C794.604 81.7866 1048.73 67.2892 1379.22 140.733" stroke="#D0D0D0" stroke-miterlimit="10"/>
<path d="M-851.863 194.346C-742.563 171.096 -578.203 148.119 -381.873 169.728C-248.937 184.362 -204.261 208.16 -89.496 224.435C159.298 259.858 314.914 200.364 508.921 168.36C683.938 139.502 938.06 125.005 1268.56 198.449" stroke="#D0D0D0" stroke-miterlimit="10"/>
<path d="M-851.863 79.0511C-742.563 55.8007 -578.203 32.8238 -381.873 54.433C-248.937 69.0671 -204.261 92.8646 -89.496 109.14C159.298 144.563 314.914 85.0689 508.921 53.0654C683.938 24.2075 1045.86 43.3549 1315.01 80.2821" stroke="#D0D0D0" stroke-miterlimit="10"/>
<path d="M-851.863 237.565C-742.563 214.314 -578.203 191.337 -381.873 212.947C-248.937 227.581 -204.261 251.378 -89.496 267.654C159.298 303.076 314.914 243.583 508.921 211.579C683.938 182.721 938.06 168.224 1268.56 241.668" stroke="#D0D0D0" stroke-miterlimit="10"/>
<path d="M-851.863 122.27C-742.563 99.0195 -578.203 76.0426 -381.873 97.6518C-248.937 112.286 -204.261 136.083 -89.496 152.359C159.298 187.781 314.914 128.288 508.921 96.2841C683.938 67.4262 938.06 52.9289 1268.56 126.373" stroke="#D0D0D0" stroke-miterlimit="10"/>
<path d="M-664.688 179.849C-555.388 156.599 -391.028 133.622 -194.698 155.231C-61.7615 169.865 -17.0852 193.663 97.6798 209.938C346.474 245.361 502.09 185.867 696.097 153.863C871.114 125.005 1125.24 110.508 1455.73 183.952" stroke="#D0D0D0" stroke-miterlimit="10"/>
<path d="M-741.197 64.6908C-631.897 41.4404 -467.537 18.4635 -271.207 40.0727C-138.271 54.7068 -93.5949 78.5043 21.1701 94.7796C269.964 130.202 425.58 70.7086 619.587 38.705C794.604 9.84712 1048.73 -4.65021 1379.22 68.7938" stroke="#D0D0D0" stroke-miterlimit="10"/>
<path d="M-741.197 208.707C-631.897 185.457 -467.537 162.48 -271.207 184.089C-138.271 198.723 -93.5949 222.521 21.1701 238.796C269.964 274.219 425.58 214.725 619.587 182.722C794.604 153.864 1048.73 139.366 1379.22 212.81" stroke="#D0D0D0" stroke-miterlimit="10"/>
<path d="M-548.557 93.4125C-439.257 70.162 -274.897 47.1851 -78.5668 68.7944C54.3693 83.4285 99.0457 107.226 213.811 123.501C462.605 158.924 618.221 99.4302 812.228 67.4267C987.245 38.5688 1241.37 24.0715 1571.86 97.5155" stroke="#D0D0D0" stroke-miterlimit="10"/>
<path d="M-664.688 151.128C-555.388 127.878 -391.028 104.901 -194.698 126.51C-61.7615 141.144 -17.0852 164.942 97.6798 181.217C346.474 216.64 502.09 157.146 696.097 125.143C871.114 96.2846 1125.24 81.7873 1455.73 155.231" stroke="#D0D0D0" stroke-miterlimit="10"/>
<path d="M-548.557 50.1937C-439.257 26.9433 -274.897 3.96639 -78.5668 25.5756C54.3693 40.2097 99.0457 64.0072 213.811 80.2826C462.605 115.705 618.221 56.2115 812.228 24.208C987.245 -4.64995 1241.37 -19.1473 1571.86 54.2968" stroke="#D0D0D0" stroke-miterlimit="10"/>
</svg>
