<svg width="1920" height="850" viewBox="0 0 1920 850" fill="none" xmlns="http://www.w3.org/2000/svg">
<g clip-path="url(#clip0_1_3918)">
<path d="M-129.799 398.018C-5.4629 388.754 178.865 390.175 388.234 454.704C529.999 498.399 573.481 537.265 695.065 579.652C958.611 671.72 1141.45 624.73 1360.1 620.154C1557.35 616.044 1837.71 645.174 2181.99 801.276" stroke="#D0D0D0" stroke-miterlimit="10"/>
<path d="M-317.689 232.756C-193.354 223.493 -9.02556 224.914 200.344 289.443C342.108 333.138 385.59 372.004 507.174 414.391C770.72 506.459 953.56 459.468 1172.21 454.893C1369.46 450.782 1649.82 479.913 1994.1 636.015" stroke="#D0D0D0" stroke-miterlimit="10"/>
<path d="M-120.271 342.663C4.06444 333.399 188.392 334.821 397.762 399.349C539.526 443.045 583.008 481.911 704.592 524.298C968.138 616.366 1150.98 569.375 1369.63 564.8C1566.88 560.689 1847.24 589.82 2191.52 745.921" stroke="#D0D0D0" stroke-miterlimit="10"/>
<path d="M-304.997 159.009C-180.662 149.745 3.66629 151.167 213.036 215.695C354.8 259.391 398.282 298.256 519.866 340.643C783.412 432.712 966.252 385.721 1184.91 381.146C1382.15 377.035 1654.95 449.232 2028.3 553.164" stroke="#D0D0D0" stroke-miterlimit="10"/>
<path d="M-317.371 346.799C-193.035 337.536 -8.7072 338.957 200.662 403.485C342.427 447.181 385.909 486.047 507.493 528.434C771.039 620.502 953.879 573.511 1172.53 568.936C1369.78 564.825 1650.14 593.956 1994.42 750.058" stroke="#D0D0D0" stroke-miterlimit="10"/>
<path d="M-311.328 195.795C-186.992 186.531 -2.66424 187.953 206.705 252.481C348.47 296.177 391.952 335.042 513.536 377.429C777.082 469.498 959.922 422.507 1178.58 417.932C1375.82 413.821 1656.18 442.951 2000.46 599.053" stroke="#D0D0D0" stroke-miterlimit="10"/>
<path d="M-444.754 248.945C-320.418 239.682 -136.09 241.103 73.2793 305.631C215.044 349.327 258.526 388.193 380.11 430.58C643.656 522.648 826.496 475.657 1045.15 471.082C1242.4 466.971 1522.76 496.102 1867.03 652.204" stroke="#D0D0D0" stroke-miterlimit="10"/>
<path d="M-419.34 101.275C-295.004 92.0116 -110.676 93.4329 98.6933 157.961C240.458 201.657 283.94 240.523 405.524 282.91C669.07 374.978 851.91 327.987 1070.56 323.412C1267.81 319.301 1658.33 411.758 1943.74 509.574" stroke="#D0D0D0" stroke-miterlimit="10"/>
<path d="M-454.279 304.3C-329.943 295.036 -145.615 296.458 63.754 360.986C205.519 404.682 249.001 443.547 370.585 485.934C634.13 578.003 816.971 531.012 1035.62 526.437C1232.87 522.326 1513.23 551.456 1857.51 707.558" stroke="#D0D0D0" stroke-miterlimit="10"/>
<path d="M-428.867 156.629C-304.531 147.366 -120.203 148.787 89.1661 213.316C230.931 257.011 274.413 295.877 395.997 338.264C659.543 430.332 842.383 383.341 1061.04 378.766C1258.28 374.655 1538.64 403.786 1882.92 559.888" stroke="#D0D0D0" stroke-miterlimit="10"/>
<path d="M-237.408 265.511C-113.072 256.247 71.2557 257.668 280.625 322.197C422.39 365.893 465.872 404.758 587.456 447.145C851.002 539.214 1033.84 492.223 1252.5 487.648C1449.74 483.537 1730.1 512.667 2074.38 668.769" stroke="#D0D0D0" stroke-miterlimit="10"/>
<path d="M-295.472 103.654C-171.137 94.3906 13.1912 95.812 222.561 160.34C364.325 204.036 407.807 242.902 529.391 285.289C792.937 377.357 975.777 330.366 1194.43 325.791C1391.68 321.68 1672.04 350.811 2016.31 506.913" stroke="#D0D0D0" stroke-miterlimit="10"/>
<path d="M-327.217 288.111C-202.881 278.848 -18.5529 280.269 190.817 344.798C332.581 388.493 376.063 427.359 497.647 469.746C761.193 561.814 944.033 514.823 1162.69 510.248C1359.93 506.137 1640.29 535.268 1984.57 691.37" stroke="#D0D0D0" stroke-miterlimit="10"/>
<path d="M-91.6932 176.6C32.6426 167.336 216.971 168.757 426.34 233.286C568.105 276.981 611.587 315.847 733.171 358.234C996.716 450.302 1179.56 403.312 1398.21 398.736C1595.46 394.626 1875.82 423.756 2220.09 579.858" stroke="#D0D0D0" stroke-miterlimit="10"/>
<path d="M-231.076 228.724C-106.74 219.46 77.5877 220.882 286.957 285.41C428.722 329.106 472.204 367.972 593.788 410.359C857.334 502.427 1040.17 455.436 1258.83 450.861C1456.07 446.75 1736.44 475.881 2080.71 631.982" stroke="#D0D0D0" stroke-miterlimit="10"/>
<path d="M-82.1678 121.245C42.168 111.981 226.496 113.402 435.865 177.931C577.63 221.626 621.112 260.492 742.696 302.879C1006.24 394.948 1189.08 347.957 1407.74 343.381C1604.98 339.271 1885.34 368.401 2229.62 524.503" stroke="#D0D0D0" stroke-miterlimit="10"/>
</g>
<defs>
<clipPath id="clip0_1_3918">
<rect width="2682.66" height="400.288" fill="white" transform="translate(-402.062) rotate(9.76468)"/>
</clipPath>
</defs>
</svg>
