<svg width="320" height="913" viewBox="0 0 320 913" fill="none" xmlns="http://www.w3.org/2000/svg">
<g clip-path="url(#clip0_1_14194)">
<path d="M-1076.6 793.889C-970.878 741.027 -808.716 676.564 -601.978 661.065C-461.995 650.573 -409.934 670.717 -288.117 666.225C-23.9992 656.662 119.509 548.313 309.625 466.1C481.135 391.952 737.446 318.646 1095.31 339.029" stroke="#D0D0D0" stroke-miterlimit="10"/>
<path d="M-1300.6 709.306C-1194.88 656.444 -1032.72 591.981 -825.978 576.482C-685.995 565.99 -633.934 586.134 -512.117 581.642C-247.999 572.079 -104.491 463.73 85.6255 381.517C257.135 307.369 513.446 234.063 871.309 254.446" stroke="#D0D0D0" stroke-miterlimit="10"/>
<path d="M-1088.08 739.704C-982.36 686.842 -820.198 622.379 -613.461 606.879C-473.477 596.388 -421.417 616.532 -299.6 612.04C-35.4816 602.477 108.027 494.128 298.143 411.915C469.653 337.767 725.964 264.461 1083.83 284.844" stroke="#D0D0D0" stroke-miterlimit="10"/>
<path d="M-1315.89 637.117C-1210.17 584.255 -1048.01 519.792 -841.274 504.292C-701.291 493.801 -649.23 513.944 -527.414 509.452C-263.295 499.89 -119.787 391.541 70.3293 309.328C241.839 235.18 506.948 204.086 871.617 166.229" stroke="#D0D0D0" stroke-miterlimit="10"/>
<path d="M-1259.45 813.823C-1153.73 760.962 -991.567 696.498 -784.83 680.999C-644.846 670.507 -592.786 690.651 -470.969 686.159C-206.851 676.596 -63.3422 568.247 126.774 486.035C298.284 411.886 554.594 338.58 912.458 358.963" stroke="#D0D0D0" stroke-miterlimit="10"/>
<path d="M-1308.26 673.126C-1202.54 620.264 -1040.38 555.801 -833.644 540.301C-693.661 529.81 -641.6 549.954 -519.784 545.462C-255.665 535.899 -112.157 427.55 77.9595 345.337C249.469 271.189 505.78 197.883 863.643 218.266" stroke="#D0D0D0" stroke-miterlimit="10"/>
<path d="M-1406.23 769.495C-1300.51 716.633 -1138.34 652.17 -931.607 636.67C-791.624 626.179 -739.563 646.323 -617.746 641.831C-353.628 632.268 -210.12 523.919 -20.0034 441.706C151.506 367.558 407.817 294.252 765.68 314.635" stroke="#D0D0D0" stroke-miterlimit="10"/>
<path d="M-1436.86 624.944C-1331.14 572.083 -1168.98 507.619 -962.239 492.12C-822.256 481.628 -770.195 501.772 -648.379 497.28C-384.26 487.718 -240.752 379.368 -50.6356 297.156C120.874 223.007 496.483 168.498 781.842 156.406" stroke="#D0D0D0" stroke-miterlimit="10"/>
<path d="M-1394.75 823.68C-1289.03 770.818 -1126.86 706.355 -920.127 690.856C-780.143 680.364 -728.083 700.508 -606.266 696.016C-342.148 686.453 -198.639 578.104 -8.52295 495.891C162.987 421.743 419.297 348.437 777.161 368.82" stroke="#D0D0D0" stroke-miterlimit="10"/>
<path d="M-1425.38 679.129C-1319.66 626.268 -1157.5 561.804 -950.758 546.305C-810.774 535.813 -758.713 555.957 -636.897 551.465C-372.778 541.903 -229.27 433.553 -39.1538 351.341C132.356 277.192 388.667 203.887 746.53 224.269" stroke="#D0D0D0" stroke-miterlimit="10"/>
<path d="M-1218.45 710.713C-1112.73 657.851 -950.571 593.388 -743.834 577.888C-603.85 567.397 -551.79 587.54 -429.973 583.048C-165.855 573.486 -22.346 465.137 167.77 382.924C339.28 308.776 595.591 235.47 953.454 255.852" stroke="#D0D0D0" stroke-miterlimit="10"/>
<path d="M-1327.38 582.932C-1221.66 530.07 -1059.49 465.606 -852.756 450.107C-712.772 439.615 -660.711 459.759 -538.895 455.267C-274.777 445.705 -131.268 337.355 58.8481 255.143C230.358 180.994 486.669 107.689 844.532 128.071" stroke="#D0D0D0" stroke-miterlimit="10"/>
<path d="M-1289.12 763.491C-1183.4 710.63 -1021.23 646.166 -814.496 630.667C-674.512 620.175 -622.452 640.319 -500.635 635.827C-236.517 626.264 -93.0082 517.915 97.1079 435.703C268.618 361.554 524.928 288.248 882.792 308.631" stroke="#D0D0D0" stroke-miterlimit="10"/>
<path d="M-1122.53 577.149C-1016.81 524.287 -854.644 459.824 -647.906 444.324C-507.923 433.833 -455.862 453.977 -334.045 449.484C-69.9269 439.922 73.5816 331.573 263.698 249.36C435.207 175.212 691.518 101.906 1049.38 122.289" stroke="#D0D0D0" stroke-miterlimit="10"/>
<path d="M-1226.08 674.704C-1120.36 621.842 -958.202 557.378 -751.465 541.879C-611.481 531.387 -559.42 551.531 -437.604 547.039C-173.485 537.477 -29.9769 429.127 160.139 346.915C331.649 272.766 587.96 199.461 945.823 219.843" stroke="#D0D0D0" stroke-miterlimit="10"/>
<path d="M-1134.01 522.964C-1028.29 470.102 -866.126 405.639 -659.389 390.139C-519.405 379.648 -467.344 399.791 -345.528 395.299C-81.4093 385.737 62.0992 277.388 252.215 195.175C423.725 121.027 680.036 47.7211 1037.9 68.1035" stroke="#D0D0D0" stroke-miterlimit="10"/>
</g>
<defs>
<clipPath id="clip0_1_14194">
<rect width="2536.72" height="394.729" fill="white" transform="translate(-1458 525.863) rotate(-11.9642)"/>
</clipPath>
</defs>
</svg>
