<svg width="980" height="913" viewBox="0 0 980 913" fill="none" xmlns="http://www.w3.org/2000/svg">
<g clip-path="url(#clip0_1_7494)">
<path d="M-37.5985 793.889C68.1222 741.027 230.284 676.564 437.022 661.065C577.005 650.573 629.066 670.717 750.883 666.225C1015 656.662 1158.51 548.313 1348.63 466.1C1520.14 391.952 1776.45 318.646 2134.31 339.029" stroke="#D0D0D0" stroke-miterlimit="10"/>
<path d="M-261.599 709.306C-155.878 656.444 6.28421 591.981 213.022 576.482C353.005 565.99 405.066 586.134 526.883 581.642C791.001 572.079 934.509 463.73 1124.63 381.517C1296.14 307.369 1552.45 234.063 1910.31 254.446" stroke="#D0D0D0" stroke-miterlimit="10"/>
<path d="M-49.081 739.704C56.6398 686.842 218.802 622.379 425.539 606.879C565.523 596.388 617.583 616.532 739.4 612.04C1003.52 602.477 1147.03 494.128 1337.14 411.915C1508.65 337.767 1764.96 264.461 2122.83 284.844" stroke="#D0D0D0" stroke-miterlimit="10"/>
<path d="M-276.895 637.117C-171.174 584.255 -9.01193 519.792 197.726 504.292C337.709 493.801 389.77 513.944 511.586 509.452C775.705 499.89 919.213 391.541 1109.33 309.328C1280.84 235.18 1545.95 204.086 1910.62 166.229" stroke="#D0D0D0" stroke-miterlimit="10"/>
<path d="M-220.45 813.823C-114.729 760.962 47.4326 696.498 254.17 680.999C394.154 670.507 446.214 690.651 568.031 686.159C832.149 676.596 975.658 568.247 1165.77 486.035C1337.28 411.886 1593.59 338.58 1951.46 358.963" stroke="#D0D0D0" stroke-miterlimit="10"/>
<path d="M-269.265 673.126C-163.544 620.264 -1.38181 555.801 205.356 540.301C345.339 529.81 397.4 549.954 519.216 545.462C783.335 535.899 926.843 427.55 1116.96 345.337C1288.47 271.189 1544.78 197.883 1902.64 218.266" stroke="#D0D0D0" stroke-miterlimit="10"/>
<path d="M-367.227 769.495C-261.507 716.633 -99.3447 652.17 107.393 636.67C247.376 626.179 299.437 646.323 421.254 641.831C685.372 632.268 828.88 523.919 1019 441.706C1190.51 367.558 1446.82 294.252 1804.68 314.635" stroke="#D0D0D0" stroke-miterlimit="10"/>
<path d="M-397.86 624.944C-292.139 572.083 -129.977 507.619 76.7606 492.12C216.744 481.628 268.805 501.772 390.621 497.28C654.74 487.718 798.248 379.368 988.364 297.156C1159.87 223.007 1535.48 168.498 1820.84 156.406" stroke="#D0D0D0" stroke-miterlimit="10"/>
<path d="M-355.747 823.68C-250.026 770.818 -87.8642 706.355 118.873 690.856C258.857 680.364 310.917 700.508 432.734 696.016C696.852 686.453 840.361 578.104 1030.48 495.891C1201.99 421.743 1458.3 348.437 1816.16 368.82" stroke="#D0D0D0" stroke-miterlimit="10"/>
<path d="M-386.378 679.129C-280.657 626.268 -118.495 561.804 88.2424 546.305C228.226 535.813 280.287 555.957 402.103 551.465C666.222 541.903 809.73 433.553 999.846 351.341C1171.36 277.192 1427.67 203.887 1785.53 224.269" stroke="#D0D0D0" stroke-miterlimit="10"/>
<path d="M-179.454 710.713C-73.7332 657.851 88.4288 593.388 295.166 577.888C435.15 567.397 487.21 587.54 609.027 583.048C873.145 573.486 1016.65 465.137 1206.77 382.924C1378.28 308.776 1634.59 235.47 1992.45 255.852" stroke="#D0D0D0" stroke-miterlimit="10"/>
<path d="M-288.376 582.932C-182.655 530.07 -20.4931 465.606 186.244 450.107C326.228 439.615 378.289 459.759 500.105 455.267C764.223 445.705 907.732 337.355 1097.85 255.143C1269.36 180.994 1525.67 107.689 1883.53 128.071" stroke="#D0D0D0" stroke-miterlimit="10"/>
<path d="M-250.116 763.491C-144.395 710.63 17.7666 646.166 224.504 630.667C364.488 620.175 416.548 640.319 538.365 635.827C802.483 626.264 945.992 517.915 1136.11 435.703C1307.62 361.554 1563.93 288.248 1921.79 308.631" stroke="#D0D0D0" stroke-miterlimit="10"/>
<path d="M-83.5263 577.149C22.1945 524.287 184.356 459.824 391.094 444.324C531.077 433.833 583.138 453.977 704.955 449.484C969.073 439.922 1112.58 331.573 1302.7 249.36C1474.21 175.212 1730.52 101.906 2088.38 122.289" stroke="#D0D0D0" stroke-miterlimit="10"/>
<path d="M-187.085 674.704C-81.3641 621.842 80.7979 557.378 287.535 541.879C427.519 531.387 479.58 551.531 601.396 547.039C865.515 537.477 1009.02 429.127 1199.14 346.915C1370.65 272.766 1626.96 199.461 1984.82 219.843" stroke="#D0D0D0" stroke-miterlimit="10"/>
<path d="M-95.0087 522.964C10.7121 470.103 172.874 405.639 379.611 390.14C519.595 379.648 571.656 399.792 693.472 395.3C957.591 385.738 1101.1 277.388 1291.22 195.176C1462.72 121.027 1719.04 47.7216 2076.9 68.104" stroke="#D0D0D0" stroke-miterlimit="10"/>
</g>
<defs>
<clipPath id="clip0_1_7494">
<rect width="2536.72" height="394.729" fill="white" transform="translate(-419 525.863) rotate(-11.9642)"/>
</clipPath>
</defs>
</svg>
