<svg width="16" height="16" viewBox="0 0 16 16" fill="none" xmlns="http://www.w3.org/2000/svg">
<path d="M8 0C0 0 0 0 0 8C0 16 0 16 8 16C16 16 16 16 16 8C16 0 16 0 8 0ZM8 2C9.70752 2 11.097 3.3888 11.097 5.09824C11.097 6.80448 9.70816 8.19328 8 8.19328C6.29248 8.19328 4.90304 6.80448 4.90304 5.09632C4.90304 3.38816 6.29248 2 8 2ZM10.9843 12.4518C11.3389 12.8051 11.3389 13.3798 10.9843 13.7344C10.6298 14.089 10.0563 14.089 9.70176 13.7344L8 12.0326L6.29824 13.7344C6.12032 13.911 5.88864 14 5.65632 14C5.42528 14 5.1936 13.911 5.01568 13.7344C4.66112 13.3798 4.66112 12.8064 5.01568 12.4518L6.7456 10.72C6.11456 10.576 5.50656 10.3264 4.9472 9.9744C4.52352 9.70752 4.39552 9.14624 4.66304 8.72256C4.92992 8.2976 5.48992 8.1696 5.91488 8.43648C7.18336 9.23328 8.81664 9.2352 10.0851 8.43648C10.5101 8.1696 11.0694 8.2976 11.337 8.72256C11.6045 9.14752 11.4758 9.70688 11.0528 9.9744C10.4934 10.3258 9.88544 10.576 9.2544 10.72L10.9843 12.4518Z" fill="#4BA998"/>
</svg>
