<svg width="320" height="480" viewBox="0 0 320 480" fill="none" xmlns="http://www.w3.org/2000/svg">
<g clip-path="url(#clip0_1_15043)">
<path d="M-188.926 783.734C-141.663 732.289 -66.2478 661.037 41.6085 600.918C114.639 560.212 146.023 556.151 210.391 522.864C349.981 450.776 407.711 364.086 494.961 277.493C573.674 199.384 697.894 99.931 892.885 17.6139" stroke="#D0D0D0" stroke-miterlimit="10"/>
<path d="M-323.593 802.171C-276.329 750.727 -200.915 679.474 -93.0582 619.355C-20.0273 578.649 11.3564 574.588 75.724 541.302C215.314 469.213 273.045 382.524 360.294 295.931C439.008 217.821 563.227 118.368 758.219 36.0513" stroke="#D0D0D0" stroke-miterlimit="10"/>
<path d="M-204.584 761.714C-157.321 710.27 -81.906 639.017 25.9503 578.898C98.9813 538.192 130.365 534.131 194.733 500.845C334.323 428.756 392.053 342.066 479.303 255.474C558.016 177.364 682.236 77.9114 877.227 -4.40579" stroke="#D0D0D0" stroke-miterlimit="10"/>
<path d="M-344.452 772.835C-297.189 721.391 -221.774 650.138 -113.918 590.019C-40.8867 549.313 -9.5031 545.252 54.8645 511.965C194.455 439.877 252.185 353.187 339.435 266.595C418.148 188.485 554.487 106.223 742.89 -4.66705" stroke="#D0D0D0" stroke-miterlimit="10"/>
<path d="M-283.227 839.775C-235.964 788.331 -160.549 717.078 -52.6925 656.959C20.3384 616.253 51.722 612.192 116.09 578.905C255.68 506.817 313.41 420.127 400.66 333.534C479.373 255.425 603.593 155.972 798.584 73.655" stroke="#D0D0D0" stroke-miterlimit="10"/>
<path d="M-334.048 787.468C-286.784 736.024 -211.369 664.771 -103.513 604.652C-30.4822 563.946 0.901438 559.885 65.269 526.599C204.86 454.51 262.59 367.82 349.839 281.228C428.553 203.118 552.772 103.665 747.763 21.3483" stroke="#D0D0D0" stroke-miterlimit="10"/>
<path d="M-369.521 856.968C-322.257 805.524 -246.843 734.271 -138.986 674.152C-65.9553 633.446 -34.5716 629.385 29.796 596.099C169.387 524.01 227.117 437.32 314.366 350.728C393.08 272.618 517.299 173.165 712.291 90.8482" stroke="#D0D0D0" stroke-miterlimit="10"/>
<path d="M-411.29 798.226C-364.027 746.782 -288.612 675.53 -180.756 615.41C-107.725 574.705 -76.3413 570.643 -11.9737 537.357C127.617 465.268 185.347 378.579 272.596 291.986C351.31 213.876 542.64 92.5113 693.147 13.814" stroke="#D0D0D0" stroke-miterlimit="10"/>
<path d="M-353.863 878.987C-306.6 827.542 -231.185 756.29 -123.329 696.171C-50.298 655.465 -18.9144 651.403 45.4532 618.117C185.044 546.029 242.774 459.339 330.023 372.746C408.737 294.636 532.957 195.184 727.948 112.867" stroke="#D0D0D0" stroke-miterlimit="10"/>
<path d="M-395.633 820.245C-348.37 768.801 -272.955 697.549 -165.099 637.429C-92.0676 596.724 -60.6839 592.662 3.68366 559.376C143.274 487.287 201.004 400.598 288.254 314.005C366.967 235.895 491.187 136.443 686.178 54.1255" stroke="#D0D0D0" stroke-miterlimit="10"/>
<path d="M-279.409 781.769C-232.146 730.325 -156.731 659.072 -48.8747 598.953C24.1562 558.247 55.5399 554.186 119.907 520.899C259.498 448.811 317.228 362.121 404.477 275.529C483.191 197.419 607.411 97.9662 802.402 15.6491" stroke="#D0D0D0" stroke-miterlimit="10"/>
<path d="M-360.111 750.817C-312.848 699.373 -237.433 628.12 -129.577 568.001C-56.5459 527.295 -25.1623 523.234 39.2053 489.947C178.796 417.859 236.526 331.169 323.775 244.576C402.489 166.467 526.709 67.0141 721.7 -15.303" stroke="#D0D0D0" stroke-miterlimit="10"/>
<path d="M-307.934 824.19C-260.67 772.746 -185.256 701.493 -77.3993 641.374C-4.36833 600.668 27.0153 596.607 91.3829 563.32C230.973 491.232 288.703 404.542 375.953 317.949C454.667 239.84 578.886 140.387 773.878 58.0698" stroke="#D0D0D0" stroke-miterlimit="10"/>
<path d="M-251.558 695.658C-204.294 644.213 -128.879 572.961 -21.0231 512.842C52.0078 472.136 83.3915 468.074 147.759 434.788C287.35 362.699 345.08 276.01 432.329 189.417C511.043 111.307 635.262 11.8548 830.254 -70.4624" stroke="#D0D0D0" stroke-miterlimit="10"/>
<path d="M-289.814 767.136C-242.551 715.692 -167.136 644.439 -59.28 584.32C13.751 543.614 45.1346 539.553 109.502 506.267C249.093 434.178 306.823 347.488 394.072 260.896C472.786 182.786 597.005 83.3334 791.997 1.0163" stroke="#D0D0D0" stroke-miterlimit="10"/>
<path d="M-267.215 673.638C-219.951 622.194 -144.536 550.941 -36.6801 490.822C36.3508 450.116 67.7345 446.055 132.102 412.769C271.693 340.68 329.423 253.99 416.672 167.398C495.386 89.288 619.605 -10.1647 814.597 -92.4818" stroke="#D0D0D0" stroke-miterlimit="10"/>
</g>
<defs>
<clipPath id="clip0_1_15043">
<rect width="1515.4" height="192.551" fill="white" transform="translate(-440 758) rotate(-35.4163)"/>
</clipPath>
</defs>
</svg>
