<svg width="14" height="13" viewBox="0 0 14 13" fill="none" xmlns="http://www.w3.org/2000/svg">
<path d="M13.1887 4.5169L9.22154 3.94034L7.4481 0.345025C7.39966 0.246588 7.31998 0.1669 7.22154 0.118463C6.97466 -0.00341219 6.67466 0.0981503 6.55123 0.345025L4.77779 3.94034L0.810601 4.5169C0.701226 4.53253 0.601226 4.58409 0.524663 4.66221C0.432103 4.75735 0.381099 4.88534 0.382856 5.01806C0.384614 5.15078 0.438991 5.27738 0.534038 5.37003L3.40435 8.16846L2.72623 12.12C2.71032 12.2119 2.7205 12.3065 2.75559 12.3929C2.79068 12.4794 2.84929 12.5542 2.92477 12.609C3.00025 12.6639 3.08958 12.6964 3.18263 12.7031C3.27568 12.7097 3.36873 12.6901 3.45123 12.6466L6.99966 10.781L10.5481 12.6466C10.645 12.6982 10.7575 12.7153 10.8653 12.6966C11.1372 12.6497 11.32 12.3919 11.2731 12.12L10.595 8.16846L13.4653 5.37003C13.5434 5.29346 13.595 5.19346 13.6106 5.08409C13.6528 4.81065 13.4622 4.55753 13.1887 4.5169Z" fill="#FFA300"/>
</svg>
