<svg width="16" height="16" viewBox="0 0 16 16" fill="none" xmlns="http://www.w3.org/2000/svg">
<path d="M10.454 0H5.54255C1.06055 0 -0.00195312 1.0625 -0.00195312 5.5445V10.456C-0.00195312 14.938 1.06055 16.0005 5.54255 16.0005H10.454C14.936 16.0005 15.9985 14.938 15.9985 10.456V5.5445C15.9985 1.0625 14.9255 0 10.454 0ZM12.915 11.414H11.7535C11.3135 11.414 11.178 11.065 10.3865 10.263C9.69905 9.5965 9.39455 9.508 9.22505 9.508C8.98555 9.508 8.91755 9.5755 8.91755 9.904V10.9535C8.91755 11.235 8.82905 11.404 8.08405 11.404C6.85205 11.404 5.48505 10.659 4.52655 9.271C3.08105 7.237 2.68555 5.7135 2.68555 5.3985C2.68555 5.229 2.75305 5.0705 3.07855 5.0705H4.24255C4.53705 5.0705 4.64905 5.206 4.76355 5.521C5.33905 7.1825 6.29755 8.638 6.69305 8.638C6.83905 8.638 6.90655 8.5705 6.90655 8.198V6.482C6.86205 5.6905 6.44555 5.6225 6.44555 5.3415C6.44555 5.206 6.55755 5.0705 6.73705 5.0705H8.56755C8.81505 5.0705 8.90605 5.206 8.90605 5.4975V7.8125C8.90605 8.0625 9.01805 8.151 9.08555 8.151C9.23155 8.151 9.35655 8.0625 9.62705 7.7915C10.463 6.854 11.062 5.4085 11.062 5.4085C11.14 5.239 11.2755 5.0805 11.57 5.0805H12.734C13.083 5.0805 13.161 5.26 13.083 5.51C12.937 6.187 11.5125 8.1975 11.5125 8.1975C11.39 8.4005 11.343 8.489 11.5125 8.7155C11.6375 8.885 12.044 9.2365 12.3145 9.5515C12.812 10.1165 13.1945 10.5905 13.2965 10.9185C13.411 11.244 13.242 11.4135 12.9135 11.4135L12.915 11.414Z" fill="#4BA998"/>
</svg>
