<svg width="320" height="260" viewBox="0 0 320 260" fill="none" xmlns="http://www.w3.org/2000/svg">
<g clip-path="url(#clip0_1_14160)">
<path d="M-433.846 224.787C-341.579 205.16 -202.834 185.764 -37.101 204.006C75.1177 216.359 112.832 236.448 209.711 250.187C419.732 280.089 551.096 229.867 714.869 202.851C862.61 178.49 1077.13 166.252 1356.12 228.251" stroke="#D0D0D0" stroke-miterlimit="10"/>
<path d="M-596.465 139.698C-504.199 120.071 -365.453 100.675 -199.72 118.917C-87.5014 131.27 -49.7876 151.359 47.0919 165.098C257.113 195 388.477 144.778 552.249 117.762C699.991 93.4015 914.51 81.1635 1193.5 143.162" stroke="#D0D0D0" stroke-miterlimit="10"/>
<path d="M-433.846 188.304C-341.579 168.677 -202.834 149.281 -37.101 167.522C75.1177 179.876 112.832 199.964 209.711 213.703C419.732 243.606 551.096 193.384 714.869 166.368C862.61 142.007 1077.13 129.769 1356.12 191.767" stroke="#D0D0D0" stroke-miterlimit="10"/>
<path d="M-596.465 91.0922C-504.199 71.4652 -365.453 52.0692 -199.72 70.3107C-87.5013 82.6642 -49.7875 102.753 47.092 116.492C257.113 146.394 388.477 96.1722 552.25 69.1562C699.991 44.7956 914.394 60.959 1208.49 86.3587" stroke="#D0D0D0" stroke-miterlimit="10"/>
<path d="M-581.473 212.664C-489.206 193.037 -350.461 173.641 -184.728 191.882C-72.5092 204.236 -34.7954 224.325 62.0841 238.064C272.105 267.966 403.469 217.744 567.242 190.728C714.983 166.367 929.502 154.129 1208.49 216.128" stroke="#D0D0D0" stroke-miterlimit="10"/>
<path d="M-596.465 115.338C-504.199 95.7108 -365.453 76.3147 -199.72 94.5563C-87.5014 106.91 -49.7876 126.999 47.0919 140.737C257.113 170.64 388.477 120.418 552.249 93.4017C699.991 69.0412 914.51 56.8032 1193.5 118.801" stroke="#D0D0D0" stroke-miterlimit="10"/>
<path d="M-689.885 164.059C-597.619 144.432 -458.873 125.035 -293.14 143.277C-180.921 155.63 -143.207 175.719 -46.328 189.458C163.693 219.36 295.057 169.138 458.83 142.122C606.571 117.762 821.09 105.524 1100.08 167.522" stroke="#D0D0D0" stroke-miterlimit="10"/>
<path d="M-689.885 66.7315C-597.619 47.1045 -458.873 27.7084 -293.14 45.9499C-180.921 58.3034 -143.207 78.3922 -46.328 92.1311C163.693 122.033 295.057 71.8114 458.83 44.7954C606.571 20.4348 912.087 36.5982 1139.29 67.7705" stroke="#D0D0D0" stroke-miterlimit="10"/>
<path d="M-689.885 200.542C-597.619 180.915 -458.873 161.519 -293.14 179.76C-180.921 192.114 -143.207 212.203 -46.328 225.942C163.693 255.844 295.057 205.622 458.83 178.606C606.571 154.245 821.09 142.007 1100.08 204.006" stroke="#D0D0D0" stroke-miterlimit="10"/>
<path d="M-689.885 103.215C-597.619 83.5878 -458.873 64.1917 -293.14 82.4332C-180.921 94.7867 -143.207 114.876 -46.328 128.614C163.693 158.517 295.057 108.295 458.83 81.2787C606.571 56.9181 821.09 44.6801 1100.08 106.678" stroke="#D0D0D0" stroke-miterlimit="10"/>
<path d="M-531.879 151.82C-439.613 132.193 -300.867 112.797 -135.134 131.039C-22.9154 143.392 14.7984 163.481 111.678 177.22C321.699 207.122 453.063 156.9 616.835 129.884C764.577 105.524 979.096 93.2856 1258.09 155.284" stroke="#D0D0D0" stroke-miterlimit="10"/>
<path d="M-596.465 54.6093C-504.199 34.9823 -365.453 15.5862 -199.72 33.8278C-87.5014 46.1812 -49.7876 66.2701 47.0919 80.009C257.113 109.911 388.477 59.6892 552.249 32.6732C699.991 8.31267 914.51 -3.92534 1193.5 58.0729" stroke="#D0D0D0" stroke-miterlimit="10"/>
<path d="M-596.465 176.182C-504.199 156.555 -365.453 137.158 -199.72 155.4C-87.5014 167.753 -49.7876 187.842 47.0919 201.581C257.113 231.484 388.477 181.261 552.249 154.246C699.991 129.885 914.51 117.647 1193.5 179.645" stroke="#D0D0D0" stroke-miterlimit="10"/>
<path d="M-433.846 78.8544C-341.579 59.2274 -202.834 39.8313 -37.101 58.0729C75.1177 70.4263 112.832 90.5151 209.711 104.254C419.732 134.156 551.096 83.9343 714.869 56.9183C862.61 32.5578 1077.13 20.3198 1356.12 82.318" stroke="#D0D0D0" stroke-miterlimit="10"/>
<path d="M-531.879 127.575C-439.613 107.948 -300.867 88.552 -135.134 106.794C-22.9154 119.147 14.7984 139.236 111.678 152.975C321.699 182.877 453.063 132.655 616.835 105.639C764.577 81.2785 979.096 69.0405 1258.09 131.039" stroke="#D0D0D0" stroke-miterlimit="10"/>
<path d="M-433.846 42.371C-341.579 22.744 -202.834 3.34792 -37.101 21.5895C75.1177 33.9429 112.832 54.0318 209.711 67.7707C419.732 97.673 551.096 47.4509 714.869 20.435C862.61 -3.92561 1077.13 -16.1636 1356.12 45.8346" stroke="#D0D0D0" stroke-miterlimit="10"/>
</g>
<defs>
<clipPath id="clip0_1_14160">
<rect width="2046.23" height="260" fill="white" transform="translate(-690)"/>
</clipPath>
</defs>
</svg>
