<svg width="720" height="913" viewBox="0 0 720 913" fill="none" xmlns="http://www.w3.org/2000/svg">
<g clip-path="url(#clip0_1_9673)">
<path d="M-518.599 793.889C-412.878 741.027 -250.716 676.564 -43.9784 661.065C96.0052 650.573 148.066 670.717 269.883 666.225C534.001 656.662 677.509 548.313 867.625 466.1C1039.14 391.952 1295.45 318.646 1653.31 339.029" stroke="#D0D0D0" stroke-miterlimit="10"/>
<path d="M-742.599 709.306C-636.878 656.444 -474.716 591.981 -267.978 576.482C-127.995 565.99 -75.9341 586.134 45.8825 581.642C310.001 572.079 453.509 463.73 643.625 381.517C815.135 307.369 1071.45 234.063 1429.31 254.446" stroke="#D0D0D0" stroke-miterlimit="10"/>
<path d="M-530.081 739.704C-424.36 686.842 -262.198 622.379 -55.4608 606.879C84.5228 596.388 136.583 616.532 258.4 612.04C522.518 602.477 666.027 494.128 856.143 411.915C1027.65 337.767 1283.96 264.461 1641.83 284.844" stroke="#D0D0D0" stroke-miterlimit="10"/>
<path d="M-757.895 637.117C-652.174 584.255 -490.012 519.792 -283.274 504.292C-143.291 493.801 -91.2303 513.944 30.5864 509.452C294.705 499.89 438.213 391.541 628.329 309.328C799.839 235.18 1064.95 204.086 1429.62 166.229" stroke="#D0D0D0" stroke-miterlimit="10"/>
<path d="M-701.45 813.823C-595.729 760.962 -433.567 696.498 -226.83 680.999C-86.8463 670.507 -34.7857 690.651 87.0309 686.159C351.149 676.596 494.658 568.247 684.774 486.035C856.284 411.886 1112.59 338.58 1470.46 358.963" stroke="#D0D0D0" stroke-miterlimit="10"/>
<path d="M-750.265 673.126C-644.544 620.264 -482.382 555.801 -275.644 540.301C-135.661 529.81 -83.6001 549.954 38.2165 545.462C302.335 535.899 445.843 427.55 635.959 345.337C807.469 271.189 1063.78 197.883 1421.64 218.266" stroke="#D0D0D0" stroke-miterlimit="10"/>
<path d="M-848.227 769.495C-742.507 716.633 -580.345 652.17 -373.607 636.67C-233.624 626.179 -181.563 646.323 -59.7464 641.831C204.372 632.268 347.88 523.919 537.997 441.706C709.506 367.558 965.817 294.252 1323.68 314.635" stroke="#D0D0D0" stroke-miterlimit="10"/>
<path d="M-878.86 624.944C-773.139 572.083 -610.977 507.619 -404.239 492.12C-264.256 481.628 -212.195 501.772 -90.3786 497.28C173.74 487.718 317.248 379.368 507.364 297.156C678.874 223.007 1054.48 168.498 1339.84 156.406" stroke="#D0D0D0" stroke-miterlimit="10"/>
<path d="M-836.747 823.68C-731.026 770.818 -568.864 706.355 -362.127 690.856C-222.143 680.364 -170.083 700.508 -48.2659 696.016C215.852 686.453 359.361 578.104 549.477 495.891C720.987 421.743 977.297 348.437 1335.16 368.82" stroke="#D0D0D0" stroke-miterlimit="10"/>
<path d="M-867.378 679.129C-761.657 626.268 -599.495 561.804 -392.758 546.305C-252.774 535.813 -200.713 555.957 -78.8968 551.465C185.222 541.903 328.73 433.553 518.846 351.341C690.356 277.192 946.667 203.887 1304.53 224.269" stroke="#D0D0D0" stroke-miterlimit="10"/>
<path d="M-660.454 710.713C-554.733 657.851 -392.571 593.388 -185.834 577.888C-45.8501 567.397 6.21047 587.54 128.027 583.048C392.145 573.486 535.654 465.137 725.77 382.924C897.28 308.776 1153.59 235.47 1511.45 255.852" stroke="#D0D0D0" stroke-miterlimit="10"/>
<path d="M-769.376 582.932C-663.655 530.07 -501.493 465.606 -294.756 450.107C-154.772 439.615 -102.711 459.759 19.1052 455.267C283.223 445.705 426.732 337.355 616.848 255.143C788.358 180.994 1044.67 107.689 1402.53 128.071" stroke="#D0D0D0" stroke-miterlimit="10"/>
<path d="M-731.116 763.491C-625.395 710.63 -463.233 646.166 -256.496 630.667C-116.512 620.175 -64.4517 640.319 57.3649 635.827C321.483 626.264 464.992 517.915 655.108 435.703C826.618 361.554 1082.93 288.248 1440.79 308.631" stroke="#D0D0D0" stroke-miterlimit="10"/>
<path d="M-564.526 577.149C-458.806 524.287 -296.644 459.824 -89.9061 444.324C50.0775 433.833 102.138 453.977 223.955 449.484C488.073 439.922 631.582 331.573 821.698 249.36C993.207 175.212 1249.52 101.906 1607.38 122.289" stroke="#D0D0D0" stroke-miterlimit="10"/>
<path d="M-668.085 674.704C-562.364 621.842 -400.202 557.378 -193.465 541.879C-53.481 531.387 -1.42039 551.531 120.396 547.039C384.515 537.477 528.023 429.127 718.139 346.915C889.649 272.766 1145.96 199.461 1503.82 219.843" stroke="#D0D0D0" stroke-miterlimit="10"/>
<path d="M-576.009 522.964C-470.288 470.102 -308.126 405.639 -101.389 390.139C38.5951 379.648 90.6557 399.791 212.472 395.299C476.591 385.737 620.099 277.388 810.215 195.175C981.725 121.027 1238.04 47.7211 1595.9 68.1035" stroke="#D0D0D0" stroke-miterlimit="10"/>
</g>
<defs>
<clipPath id="clip0_1_9673">
<rect width="2536.72" height="394.729" fill="white" transform="translate(-900 525.863) rotate(-11.9642)"/>
</clipPath>
</defs>
</svg>
