<svg width="1920" height="308" viewBox="0 0 1920 308" fill="none" xmlns="http://www.w3.org/2000/svg">
<path d="M57.4434 266.286C166.743 243.035 331.103 220.058 527.433 241.667C660.369 256.302 705.046 280.099 819.811 296.374C1068.6 331.797 1224.22 272.303 1418.23 240.3C1593.24 211.442 1847.37 196.945 2177.86 270.389" stroke="#D0D0D0" stroke-miterlimit="10"/>
<path d="M-135.197 165.489C-25.8973 142.238 138.463 119.261 334.793 140.871C467.729 155.505 512.405 179.302 627.17 195.577C875.964 231 1031.58 171.506 1225.59 139.503C1400.6 110.645 1654.73 96.1476 1985.22 169.592" stroke="#D0D0D0" stroke-miterlimit="10"/>
<path d="M57.4434 223.068C166.743 199.817 331.103 176.84 527.433 198.45C660.369 213.084 705.046 236.881 819.811 253.157C1068.6 288.579 1224.22 229.086 1418.23 197.082C1593.24 168.224 1847.37 153.727 2177.86 227.171" stroke="#D0D0D0" stroke-miterlimit="10"/>
<path d="M-135.197 107.909C-25.8973 84.659 138.463 61.6821 334.793 83.2913C467.729 97.9254 512.405 121.723 627.17 137.998C875.964 173.421 1031.58 113.927 1225.59 81.9237C1400.6 53.0658 1654.59 72.2132 2002.98 102.302" stroke="#D0D0D0" stroke-miterlimit="10"/>
<path d="M-117.436 251.925C-8.13557 228.675 156.224 205.698 352.554 227.307C485.49 241.941 530.167 265.739 644.932 282.014C893.726 317.437 1049.34 257.943 1243.35 225.939C1418.37 197.081 1672.49 182.584 2002.98 256.028" stroke="#D0D0D0" stroke-miterlimit="10"/>
<path d="M-135.197 136.63C-25.8973 113.38 138.463 90.4029 334.793 112.012C467.729 126.646 512.405 150.444 627.17 166.719C875.964 202.142 1031.58 142.648 1225.59 110.644C1400.6 81.7866 1654.73 67.2892 1985.22 140.733" stroke="#D0D0D0" stroke-miterlimit="10"/>
<path d="M-245.863 194.346C-136.563 171.096 27.7965 148.119 224.127 169.728C357.063 184.362 401.739 208.16 516.504 224.435C765.298 259.858 920.914 200.364 1114.92 168.36C1289.94 139.502 1544.06 125.005 1874.56 198.449" stroke="#D0D0D0" stroke-miterlimit="10"/>
<path d="M-245.863 79.0511C-136.563 55.8007 27.7965 32.8238 224.127 54.433C357.063 69.0671 401.739 92.8646 516.504 109.14C765.298 144.563 920.914 85.0689 1114.92 53.0654C1289.94 24.2075 1651.86 43.3549 1921.01 80.2821" stroke="#D0D0D0" stroke-miterlimit="10"/>
<path d="M-245.863 237.565C-136.563 214.314 27.7965 191.337 224.127 212.947C357.063 227.581 401.739 251.378 516.504 267.654C765.298 303.076 920.914 243.583 1114.92 211.579C1289.94 182.721 1544.06 168.224 1874.56 241.668" stroke="#D0D0D0" stroke-miterlimit="10"/>
<path d="M-245.863 122.27C-136.563 99.0195 27.7965 76.0426 224.127 97.6518C357.063 112.286 401.739 136.083 516.504 152.359C765.298 187.781 920.914 128.288 1114.92 96.2841C1289.94 67.4262 1544.06 52.9289 1874.56 126.373" stroke="#D0D0D0" stroke-miterlimit="10"/>
<path d="M-58.6875 179.849C50.6125 156.599 214.972 133.622 411.302 155.231C544.238 169.865 588.915 193.663 703.68 209.938C952.474 245.361 1108.09 185.867 1302.1 153.863C1477.11 125.005 1731.24 110.508 2061.73 183.952" stroke="#D0D0D0" stroke-miterlimit="10"/>
<path d="M-135.197 64.6908C-25.8973 41.4404 138.463 18.4635 334.793 40.0727C467.729 54.7068 512.405 78.5043 627.17 94.7796C875.964 130.202 1031.58 70.7086 1225.59 38.705C1400.6 9.84712 1654.73 -4.65021 1985.22 68.7938" stroke="#D0D0D0" stroke-miterlimit="10"/>
<path d="M-135.197 208.707C-25.8973 185.457 138.463 162.48 334.793 184.089C467.729 198.723 512.405 222.521 627.17 238.796C875.964 274.219 1031.58 214.725 1225.59 182.722C1400.6 153.864 1654.73 139.366 1985.22 212.81" stroke="#D0D0D0" stroke-miterlimit="10"/>
<path d="M57.4434 93.4125C166.743 70.162 331.103 47.1851 527.433 68.7944C660.369 83.4285 705.046 107.226 819.811 123.501C1068.6 158.924 1224.22 99.4302 1418.23 67.4267C1593.24 38.5688 1847.37 24.0715 2177.86 97.5155" stroke="#D0D0D0" stroke-miterlimit="10"/>
<path d="M-58.6875 151.128C50.6125 127.878 214.972 104.901 411.302 126.51C544.238 141.144 588.915 164.942 703.68 181.217C952.474 216.64 1108.09 157.146 1302.1 125.143C1477.11 96.2846 1731.24 81.7873 2061.73 155.231" stroke="#D0D0D0" stroke-miterlimit="10"/>
<path d="M57.4434 50.1937C166.743 26.9433 331.103 3.96639 527.433 25.5756C660.369 40.2097 705.046 64.0072 819.811 80.2826C1068.6 115.705 1224.22 56.2115 1418.23 24.208C1593.24 -4.64995 1847.37 -19.1473 2177.86 54.2968" stroke="#D0D0D0" stroke-miterlimit="10"/>
</svg>
