<svg width="980" height="850" viewBox="0 0 980 850" fill="none" xmlns="http://www.w3.org/2000/svg">
<g clip-path="url(#clip0_1_7511)">
<path d="M-525.799 398.018C-401.463 388.754 -217.135 390.175 -7.76557 454.704C133.999 498.399 177.481 537.265 299.065 579.652C562.611 671.72 745.451 624.73 964.105 620.154C1161.35 616.044 1441.71 645.174 1785.99 801.276" stroke="#D0D0D0" stroke-miterlimit="10"/>
<path d="M-713.689 232.756C-589.354 223.493 -405.026 224.914 -195.656 289.443C-53.8916 333.138 -10.4096 372.004 111.174 414.391C374.72 506.459 557.56 459.468 776.214 454.893C973.461 450.782 1253.82 479.913 1598.1 636.015" stroke="#D0D0D0" stroke-miterlimit="10"/>
<path d="M-516.271 342.663C-391.936 333.399 -207.608 334.821 1.76178 399.349C143.526 443.045 187.008 481.911 308.592 524.298C572.138 616.366 754.978 569.375 973.632 564.8C1170.88 560.689 1451.24 589.82 1795.52 745.921" stroke="#D0D0D0" stroke-miterlimit="10"/>
<path d="M-700.997 159.009C-576.662 149.745 -392.334 151.167 -182.964 215.695C-41.1997 259.391 2.28229 298.256 123.866 340.643C387.412 432.712 570.252 385.721 788.906 381.146C986.153 377.035 1258.95 449.232 1632.3 553.164" stroke="#D0D0D0" stroke-miterlimit="10"/>
<path d="M-713.371 346.799C-589.035 337.536 -404.707 338.957 -195.338 403.485C-53.5732 447.181 -10.0912 486.047 111.493 528.434C375.039 620.502 557.879 573.511 776.532 568.936C973.78 564.825 1254.14 593.956 1598.42 750.058" stroke="#D0D0D0" stroke-miterlimit="10"/>
<path d="M-707.328 195.795C-582.992 186.531 -398.664 187.953 -189.295 252.481C-47.5302 296.177 -4.04826 335.042 117.536 377.429C381.082 469.498 563.922 422.507 782.575 417.932C979.823 413.821 1260.18 442.951 1604.46 599.053" stroke="#D0D0D0" stroke-miterlimit="10"/>
<path d="M-840.754 248.945C-716.418 239.682 -532.09 241.103 -322.721 305.631C-180.956 349.327 -137.474 388.193 -15.8902 430.58C247.656 522.648 430.496 475.657 649.149 471.082C846.397 466.971 1126.76 496.102 1471.03 652.204" stroke="#D0D0D0" stroke-miterlimit="10"/>
<path d="M-815.34 101.275C-691.004 92.0116 -506.676 93.4329 -297.307 157.961C-155.542 201.657 -112.06 240.523 9.52387 282.91C273.07 374.978 455.91 327.987 674.563 323.412C871.811 319.301 1262.33 411.758 1547.74 509.574" stroke="#D0D0D0" stroke-miterlimit="10"/>
<path d="M-850.279 304.3C-725.943 295.036 -541.615 296.458 -332.246 360.986C-190.481 404.682 -146.999 443.547 -25.4154 485.934C238.13 578.003 420.971 531.012 639.624 526.437C836.871 522.326 1117.23 551.456 1461.51 707.558" stroke="#D0D0D0" stroke-miterlimit="10"/>
<path d="M-824.867 156.629C-700.531 147.366 -516.203 148.787 -306.834 213.316C-165.069 257.011 -121.587 295.877 -0.00331935 338.264C263.543 430.332 446.383 383.341 665.036 378.766C862.284 374.655 1142.64 403.786 1486.92 559.888" stroke="#D0D0D0" stroke-miterlimit="10"/>
<path d="M-633.408 265.511C-509.072 256.247 -324.744 257.668 -115.375 322.197C26.3897 365.893 69.8717 404.758 191.456 447.145C455.002 539.214 637.842 492.223 856.495 487.648C1053.74 483.537 1334.1 512.667 1678.38 668.769" stroke="#D0D0D0" stroke-miterlimit="10"/>
<path d="M-691.472 103.654C-567.137 94.3906 -382.809 95.812 -173.439 160.34C-31.6748 204.036 11.8072 242.902 133.391 285.289C396.937 377.357 579.777 330.366 798.431 325.791C995.678 321.68 1276.04 350.811 1620.31 506.913" stroke="#D0D0D0" stroke-miterlimit="10"/>
<path d="M-723.217 288.111C-598.881 278.848 -414.553 280.269 -205.183 344.798C-63.4189 388.493 -19.9369 427.359 101.647 469.746C365.193 561.814 548.033 514.823 766.687 510.248C963.934 506.137 1244.29 535.268 1588.57 691.37" stroke="#D0D0D0" stroke-miterlimit="10"/>
<path d="M-487.693 176.6C-363.357 167.336 -179.029 168.757 30.3399 233.286C172.105 276.981 215.587 315.847 337.171 358.234C600.716 450.302 783.557 403.312 1002.21 398.736C1199.46 394.626 1479.82 423.756 1824.09 579.858" stroke="#D0D0D0" stroke-miterlimit="10"/>
<path d="M-627.076 228.724C-502.74 219.46 -318.412 220.882 -109.043 285.41C32.7217 329.106 76.2037 367.972 197.788 410.359C461.334 502.427 644.174 455.436 862.827 450.861C1060.07 446.75 1340.44 475.881 1684.71 631.982" stroke="#D0D0D0" stroke-miterlimit="10"/>
<path d="M-478.168 121.245C-353.832 111.981 -169.504 113.402 39.8653 177.931C181.63 221.626 225.112 260.492 346.696 302.879C610.242 394.948 793.082 347.957 1011.74 343.381C1208.98 339.271 1489.34 368.401 1833.62 524.503" stroke="#D0D0D0" stroke-miterlimit="10"/>
</g>
<defs>
<clipPath id="clip0_1_7511">
<rect width="2682.66" height="400.288" fill="white" transform="translate(-798.062) rotate(9.76468)"/>
</clipPath>
</defs>
</svg>
