<svg width="480" height="913" viewBox="0 0 480 913" fill="none" xmlns="http://www.w3.org/2000/svg">
<g clip-path="url(#clip0_1_11880)">
<path d="M-893.599 793.889C-787.878 741.027 -625.716 676.564 -418.978 661.065C-278.995 650.573 -226.934 670.717 -105.117 666.225C159.001 656.662 302.509 548.313 492.625 466.1C664.135 391.952 920.446 318.646 1278.31 339.029" stroke="#D0D0D0" stroke-miterlimit="10"/>
<path d="M-1117.6 709.306C-1011.88 656.444 -849.716 591.981 -642.978 576.482C-502.995 565.99 -450.934 586.134 -329.117 581.642C-64.9992 572.079 78.5094 463.73 268.625 381.517C440.135 307.369 696.446 234.063 1054.31 254.446" stroke="#D0D0D0" stroke-miterlimit="10"/>
<path d="M-905.081 739.704C-799.36 686.842 -637.198 622.379 -430.461 606.879C-290.477 596.388 -238.417 616.532 -116.6 612.04C147.518 602.477 291.027 494.128 481.143 411.915C652.653 337.767 908.964 264.461 1266.83 284.844" stroke="#D0D0D0" stroke-miterlimit="10"/>
<path d="M-1132.89 637.117C-1027.17 584.255 -865.012 519.792 -658.274 504.292C-518.291 493.801 -466.23 513.944 -344.414 509.452C-80.2953 499.89 63.2132 391.541 253.329 309.328C424.839 235.18 689.948 204.086 1054.62 166.229" stroke="#D0D0D0" stroke-miterlimit="10"/>
<path d="M-1076.45 813.823C-970.729 760.962 -808.567 696.498 -601.83 680.999C-461.846 670.507 -409.786 690.651 -287.969 686.159C-23.8508 676.596 119.658 568.247 309.774 486.035C481.284 411.886 737.594 338.58 1095.46 358.963" stroke="#D0D0D0" stroke-miterlimit="10"/>
<path d="M-1125.26 673.126C-1019.54 620.264 -857.382 555.801 -650.644 540.301C-510.661 529.81 -458.6 549.954 -336.784 545.462C-72.6652 535.899 70.8434 427.55 260.959 345.337C432.469 271.189 688.78 197.883 1046.64 218.266" stroke="#D0D0D0" stroke-miterlimit="10"/>
<path d="M-1223.23 769.495C-1117.51 716.633 -955.345 652.17 -748.607 636.67C-608.624 626.179 -556.563 646.323 -434.746 641.831C-170.628 632.268 -27.1195 523.919 162.997 441.706C334.506 367.558 590.817 294.252 948.68 314.635" stroke="#D0D0D0" stroke-miterlimit="10"/>
<path d="M-1253.86 624.944C-1148.14 572.083 -985.977 507.619 -779.239 492.12C-639.256 481.628 -587.195 501.772 -465.379 497.28C-201.26 487.718 -57.7517 379.368 132.364 297.156C303.874 223.007 679.483 168.498 964.842 156.406" stroke="#D0D0D0" stroke-miterlimit="10"/>
<path d="M-1211.75 823.68C-1106.03 770.818 -943.864 706.355 -737.127 690.856C-597.143 680.364 -545.083 700.508 -423.266 696.016C-159.148 686.453 -15.6391 578.104 174.477 495.891C345.987 421.743 602.297 348.437 960.161 368.82" stroke="#D0D0D0" stroke-miterlimit="10"/>
<path d="M-1242.38 679.129C-1136.66 626.268 -974.495 561.804 -767.758 546.305C-627.774 535.813 -575.713 555.957 -453.897 551.465C-189.778 541.903 -46.2699 433.553 143.846 351.341C315.356 277.192 571.667 203.887 929.53 224.269" stroke="#D0D0D0" stroke-miterlimit="10"/>
<path d="M-1035.45 710.713C-929.733 657.851 -767.571 593.388 -560.834 577.888C-420.85 567.397 -368.79 587.54 -246.973 583.048C17.1454 573.486 160.654 465.137 350.77 382.924C522.28 308.776 778.591 235.47 1136.45 255.852" stroke="#D0D0D0" stroke-miterlimit="10"/>
<path d="M-1144.38 582.932C-1038.66 530.07 -876.493 465.607 -669.756 450.108C-529.772 439.616 -477.711 459.76 -355.895 455.268C-91.7765 445.705 51.732 337.356 241.848 255.143C413.358 180.995 669.669 107.689 1027.53 128.072" stroke="#D0D0D0" stroke-miterlimit="10"/>
<path d="M-1106.12 763.491C-1000.4 710.63 -838.233 646.166 -631.496 630.667C-491.512 620.175 -439.452 640.319 -317.635 635.827C-53.5168 626.264 89.9918 517.915 280.108 435.703C451.618 361.554 707.928 288.248 1065.79 308.631" stroke="#D0D0D0" stroke-miterlimit="10"/>
<path d="M-939.526 577.149C-833.806 524.287 -671.644 459.824 -464.906 444.324C-324.923 433.833 -272.862 453.977 -151.045 449.484C113.073 439.922 256.582 331.573 446.698 249.36C618.207 175.212 874.518 101.906 1232.38 122.289" stroke="#D0D0D0" stroke-miterlimit="10"/>
<path d="M-1043.08 674.704C-937.364 621.842 -775.202 557.378 -568.465 541.879C-428.481 531.387 -376.42 551.531 -254.604 547.039C9.51457 537.477 153.023 429.127 343.139 346.915C514.649 272.766 770.96 199.461 1128.82 219.843" stroke="#D0D0D0" stroke-miterlimit="10"/>
<path d="M-951.009 522.964C-845.288 470.103 -683.126 405.639 -476.389 390.14C-336.405 379.648 -284.344 399.792 -162.528 395.3C101.591 385.738 245.099 277.388 435.215 195.176C606.725 121.027 863.036 47.7216 1220.9 68.104" stroke="#D0D0D0" stroke-miterlimit="10"/>
</g>
<defs>
<clipPath id="clip0_1_11880">
<rect width="2536.72" height="394.729" fill="white" transform="translate(-1275 525.863) rotate(-11.9642)"/>
</clipPath>
</defs>
</svg>
