<svg width="980" height="308" viewBox="0 0 980 308" fill="none" xmlns="http://www.w3.org/2000/svg">
<path d="M-418.557 266.286C-309.257 243.035 -144.897 220.058 51.4332 241.667C184.369 256.302 229.046 280.099 343.811 296.374C592.605 331.797 748.221 272.303 942.228 240.3C1117.24 211.442 1371.37 196.945 1701.86 270.389" stroke="#D0D0D0" stroke-miterlimit="10"/>
<path d="M-611.197 165.489C-501.897 142.238 -337.537 119.261 -141.207 140.871C-8.27128 155.505 36.4051 179.302 151.17 195.577C399.964 231 555.58 171.506 749.587 139.503C924.604 110.645 1178.73 96.1476 1509.22 169.592" stroke="#D0D0D0" stroke-miterlimit="10"/>
<path d="M-418.557 223.068C-309.257 199.817 -144.897 176.84 51.4332 198.45C184.369 213.084 229.046 236.881 343.811 253.157C592.605 288.579 748.221 229.086 942.228 197.082C1117.24 168.224 1371.37 153.727 1701.86 227.171" stroke="#D0D0D0" stroke-miterlimit="10"/>
<path d="M-611.197 107.909C-501.897 84.659 -337.537 61.6821 -141.207 83.2913C-8.27128 97.9254 36.4051 121.723 151.17 137.998C399.964 173.421 555.58 113.927 749.587 81.9237C924.604 53.0658 1178.59 72.2132 1526.98 102.302" stroke="#D0D0D0" stroke-miterlimit="10"/>
<path d="M-593.436 251.925C-484.136 228.675 -319.776 205.698 -123.446 227.307C9.49044 241.941 54.1668 265.739 168.932 282.014C417.726 317.437 573.342 257.943 767.349 225.939C942.366 197.081 1196.49 182.584 1526.98 256.028" stroke="#D0D0D0" stroke-miterlimit="10"/>
<path d="M-611.197 136.63C-501.897 113.38 -337.537 90.4029 -141.207 112.012C-8.27128 126.646 36.4051 150.444 151.17 166.719C399.964 202.142 555.58 142.648 749.587 110.644C924.604 81.7866 1178.73 67.2892 1509.22 140.733" stroke="#D0D0D0" stroke-miterlimit="10"/>
<path d="M-721.863 194.346C-612.563 171.096 -448.203 148.119 -251.873 169.728C-118.937 184.362 -74.2609 208.16 40.504 224.435C289.298 259.858 444.914 200.364 638.921 168.36C813.938 139.502 1068.06 125.005 1398.56 198.449" stroke="#D0D0D0" stroke-miterlimit="10"/>
<path d="M-721.863 79.0511C-612.563 55.8007 -448.203 32.8238 -251.873 54.433C-118.937 69.0671 -74.261 92.8646 40.504 109.14C289.298 144.563 444.914 85.0689 638.921 53.0654C813.938 24.2075 1175.86 43.3549 1445.01 80.2821" stroke="#D0D0D0" stroke-miterlimit="10"/>
<path d="M-721.863 237.565C-612.563 214.314 -448.203 191.337 -251.873 212.947C-118.937 227.581 -74.2609 251.378 40.504 267.654C289.298 303.076 444.914 243.583 638.921 211.579C813.938 182.721 1068.06 168.224 1398.56 241.668" stroke="#D0D0D0" stroke-miterlimit="10"/>
<path d="M-721.863 122.27C-612.563 99.0195 -448.203 76.0426 -251.873 97.6518C-118.937 112.286 -74.2609 136.083 40.504 152.359C289.298 187.781 444.914 128.288 638.921 96.2841C813.938 67.4262 1068.06 52.9289 1398.56 126.373" stroke="#D0D0D0" stroke-miterlimit="10"/>
<path d="M-534.688 179.849C-425.388 156.599 -261.028 133.622 -64.6976 155.231C68.2385 169.865 112.915 193.663 227.68 209.938C476.474 245.361 632.09 185.867 826.097 153.863C1001.11 125.005 1255.24 110.508 1585.73 183.952" stroke="#D0D0D0" stroke-miterlimit="10"/>
<path d="M-611.197 64.6908C-501.897 41.4404 -337.537 18.4635 -141.207 40.0727C-8.27128 54.7068 36.4051 78.5043 151.17 94.7796C399.964 130.202 555.58 70.7086 749.587 38.705C924.604 9.84712 1178.73 -4.65021 1509.22 68.7938" stroke="#D0D0D0" stroke-miterlimit="10"/>
<path d="M-611.197 208.707C-501.897 185.457 -337.537 162.48 -141.207 184.089C-8.27128 198.723 36.4051 222.521 151.17 238.796C399.964 274.219 555.58 214.725 749.587 182.722C924.604 153.864 1178.73 139.366 1509.22 212.81" stroke="#D0D0D0" stroke-miterlimit="10"/>
<path d="M-418.557 93.4125C-309.257 70.162 -144.897 47.1851 51.4332 68.7944C184.369 83.4285 229.046 107.226 343.811 123.501C592.605 158.924 748.221 99.4302 942.228 67.4267C1117.24 38.5688 1371.37 24.0715 1701.86 97.5155" stroke="#D0D0D0" stroke-miterlimit="10"/>
<path d="M-534.688 151.128C-425.388 127.878 -261.028 104.901 -64.6976 126.51C68.2385 141.144 112.915 164.942 227.68 181.217C476.474 216.64 632.09 157.146 826.097 125.143C1001.11 96.2846 1255.24 81.7873 1585.73 155.231" stroke="#D0D0D0" stroke-miterlimit="10"/>
<path d="M-418.557 50.1937C-309.257 26.9433 -144.897 3.96639 51.4332 25.5756C184.369 40.2097 229.046 64.0072 343.811 80.2826C592.605 115.705 748.221 56.2115 942.228 24.208C1117.24 -4.64995 1371.37 -19.1473 1701.86 54.2968" stroke="#D0D0D0" stroke-miterlimit="10"/>
</svg>
