<svg width="320" height="552" viewBox="0 0 320 552" fill="none" xmlns="http://www.w3.org/2000/svg">
<g clip-path="url(#clip0_1_14177)">
<path d="M-412.058 258.525C-331.298 252.508 -211.571 253.432 -75.5788 295.345C16.5019 323.727 44.7449 348.971 123.718 376.503C294.899 436.304 413.66 405.782 555.683 402.811C683.801 400.141 865.905 419.062 1089.52 520.455" stroke="#D0D0D0" stroke-miterlimit="10"/>
<path d="M-534.099 151.183C-453.339 145.166 -333.612 146.089 -197.62 188.003C-105.539 216.384 -77.2961 241.629 1.67667 269.161C172.858 328.962 291.619 298.44 433.642 295.468C561.76 292.798 743.864 311.719 967.482 413.113" stroke="#D0D0D0" stroke-miterlimit="10"/>
<path d="M-405.871 222.571C-325.111 216.554 -205.384 217.477 -69.3913 259.39C22.6894 287.772 50.9324 313.017 129.905 340.548C301.087 400.35 419.847 369.828 561.87 366.856C689.989 364.186 872.092 383.107 1095.71 484.5" stroke="#D0D0D0" stroke-miterlimit="10"/>
<path d="M-525.856 103.281C-445.096 97.2643 -325.369 98.1875 -189.377 140.101C-97.2959 168.483 -69.053 193.727 9.91984 221.259C181.102 281.06 299.862 250.538 441.885 247.566C570.003 244.896 747.193 291.791 989.698 359.298" stroke="#D0D0D0" stroke-miterlimit="10"/>
<path d="M-533.892 225.257C-453.132 219.24 -333.405 220.164 -197.413 262.077C-105.332 290.459 -77.0891 315.703 1.88367 343.235C173.065 403.036 291.826 372.514 433.849 369.543C561.967 366.872 744.071 385.794 967.689 487.187" stroke="#D0D0D0" stroke-miterlimit="10"/>
<path d="M-529.968 127.175C-449.208 121.158 -329.481 122.082 -193.489 163.995C-101.408 192.377 -73.1653 217.621 5.80753 245.153C176.989 304.954 295.75 274.432 437.773 271.46C565.891 268.79 747.995 287.712 971.613 389.105" stroke="#D0D0D0" stroke-miterlimit="10"/>
<path d="M-616.632 161.698C-535.872 155.681 -416.145 156.605 -280.153 198.518C-188.072 226.9 -159.829 252.144 -80.8566 279.676C90.3251 339.477 209.086 308.955 351.108 305.983C479.227 303.313 661.33 322.235 884.948 423.628" stroke="#D0D0D0" stroke-miterlimit="10"/>
<path d="M-600.124 65.7813C-519.364 59.7642 -399.637 60.6875 -263.644 102.601C-171.564 130.983 -143.321 156.227 -64.3478 183.759C106.834 243.56 225.594 213.038 367.617 210.066C495.736 207.396 749.389 267.45 934.777 330.985" stroke="#D0D0D0" stroke-miterlimit="10"/>
<path d="M-622.82 197.653C-542.06 191.636 -422.333 192.559 -286.341 234.472C-194.26 262.854 -166.017 288.099 -87.044 315.63C84.1376 375.432 202.898 344.91 344.921 341.938C473.04 339.268 655.143 358.189 878.761 459.582" stroke="#D0D0D0" stroke-miterlimit="10"/>
<path d="M-606.312 101.736C-525.552 95.7189 -405.825 96.6421 -269.833 138.555C-177.752 166.937 -149.509 192.182 -70.5362 219.713C100.645 279.515 219.406 248.993 361.429 246.021C489.547 243.351 671.651 262.272 895.269 363.665" stroke="#D0D0D0" stroke-miterlimit="10"/>
<path d="M-481.953 172.458C-401.193 166.441 -281.466 167.364 -145.473 209.277C-53.3925 237.659 -25.1496 262.903 53.8232 290.435C225.005 350.237 343.766 319.714 485.788 316.743C613.907 314.073 796.01 332.994 1019.63 434.387" stroke="#D0D0D0" stroke-miterlimit="10"/>
<path d="M-519.668 67.3268C-438.907 61.3097 -319.18 62.2329 -183.188 104.146C-91.1074 132.528 -62.8645 157.773 16.1083 185.304C187.29 245.106 306.051 214.584 448.073 211.612C576.192 208.942 758.295 227.863 981.913 329.256" stroke="#D0D0D0" stroke-miterlimit="10"/>
<path d="M-540.287 187.138C-459.527 181.121 -339.8 182.044 -203.807 223.957C-111.727 252.339 -83.4836 277.584 -4.51076 305.115C166.671 364.917 285.432 334.395 427.454 331.423C555.573 328.753 737.676 347.674 961.295 449.067" stroke="#D0D0D0" stroke-miterlimit="10"/>
<path d="M-387.308 114.707C-306.548 108.69 -186.821 109.613 -50.8287 151.527C41.252 179.908 69.495 205.153 148.468 232.685C319.65 292.486 438.41 261.964 580.433 258.992C708.552 256.322 890.655 275.243 1114.27 376.637" stroke="#D0D0D0" stroke-miterlimit="10"/>
<path d="M-477.841 148.564C-397.081 142.547 -277.354 143.47 -141.362 185.384C-49.2813 213.765 -21.0383 239.01 57.9345 266.542C229.116 326.343 347.877 295.821 489.899 292.849C618.018 290.179 800.121 309.1 1023.74 410.494" stroke="#D0D0D0" stroke-miterlimit="10"/>
<path d="M-381.121 78.7526C-300.361 72.7355 -180.634 73.6587 -44.6413 115.572C47.4394 143.954 75.6824 169.198 154.655 196.73C325.837 256.532 444.598 226.009 586.62 223.038C714.739 220.368 896.842 239.289 1120.46 340.682" stroke="#D0D0D0" stroke-miterlimit="10"/>
</g>
<defs>
<clipPath id="clip0_1_14177">
<rect width="1742.48" height="260" fill="white" transform="translate(-588.902) rotate(9.76468)"/>
</clipPath>
</defs>
</svg>
