<svg width="14" height="14" viewBox="0 0 14 14" fill="none" xmlns="http://www.w3.org/2000/svg">
<path d="M7.00065 0.333496C3.32465 0.333496 0.333984 2.72616 0.333984 5.66683C0.333984 7.6055 1.59932 9.34416 3.66732 10.2895V13.6668L7.22732 10.9968C10.7987 10.9015 13.6673 8.54683 13.6673 5.66683C13.6673 2.72616 10.6767 0.333496 7.00065 0.333496ZM7.00065 9.66683H6.77865L5.00065 11.0002V9.38883L4.57332 9.22416C2.78065 8.53416 1.66732 7.17083 1.66732 5.66683C1.66732 3.46083 4.05998 1.66683 7.00065 1.66683C9.94132 1.66683 12.334 3.46083 12.334 5.66683C12.334 7.87283 9.94132 9.66683 7.00065 9.66683Z" fill="#8F8F8F"/>
</svg>
