<svg width="177" height="32" viewBox="0 0 177 32" fill="none" xmlns="http://www.w3.org/2000/svg">
<g clip-path="url(#clip0_1_12151)">
<path d="M50.4 21.9H35.1C35.4 22.7 36 23.4 36.7 23.8C37.4 24.2 38.4 24.5 39.5 24.5C40.5 24.5 41.3 24.4 41.9 24.1C42.6 23.9 43.3 23.4 44 22.9L48.7 27.7C46.6 30.1 43.4 31.2 39.1 31.2C36.4 31.2 34.1 30.7 32.1 29.7C30.1 28.7 28.5 27.4 27.4 25.6C26.5 23.9 26 22 26 19.8C26 17.6 26.5 15.6 27.6 13.9C28.7 12.2 30.2 10.8 32.1 9.9C34 9 36.1 8.5 38.5 8.5C40.7 8.5 42.8 8.9 44.6 9.8C46.4 10.7 47.9 12 49 13.7C50.1 15.4 50.6 17.5 50.6 19.8C50.5 19.9 50.5 20.7 50.4 21.9ZM36.2 15.4C35.6 15.9 35.2 16.6 35 17.6H42C41.8 16.7 41.4 16 40.8 15.5C40.2 15 39.4 14.7 38.5 14.7C37.6 14.6 36.8 14.9 36.2 15.4Z" fill="white"/>
<path d="M52.3008 8.8H61.3008V18.7L69.0008 8.8H77.4008V30.8H68.4008V20.8L60.8008 30.8H52.4008V8.8H52.3008ZM58.1008 5.3C56.8008 4.2 56.2008 2.4 56.2008 0H62.0008C62.0008 0.9 62.2008 1.5 62.5008 2C62.8008 2.4 63.4008 2.7 64.2008 2.7C65.7008 2.7 66.5008 1.8 66.5008 0H72.4008C72.4008 2.4 71.8008 4.2 70.5008 5.3C69.1008 6.5 67.0008 7 64.2008 7C61.4008 7 59.4008 6.5 58.1008 5.3Z" fill="white"/>
<path d="M100.9 15.8998H94.2V30.7998H85.2V15.8998H78.5V8.7998H101V15.8998H100.9Z" fill="white"/>
<path d="M102.1 8.7998H111.1V18.6998L118.7 8.7998H127.1V30.7998H118.1V20.7998L110.5 30.7998H102.1V8.7998Z" fill="white"/>
<path d="M129.9 8.7998H138.9V16.4998H145.1V8.7998H154.1V30.7998H145.1V23.5998H139V30.7998H130V8.7998H129.9Z" fill="white"/>
<path d="M176.2 15.8998H166V30.7998H157V8.7998H176.2V15.8998Z" fill="white"/>
<path d="M24.8 7.7002C23.8 6.1002 22.3 4.9002 20.3 4.0002C18.4 3.1002 16.1 2.7002 13.5 2.7002H0V30.8002H9.5V23.9002H13.6C16.2 23.9002 18.5 23.5002 20.4 22.6002C22.3 21.7002 23.8 20.5002 24.9 18.9002C25.9 17.3002 26.5 15.4002 26.5 13.3002C26.4 11.2002 25.8 9.3002 24.8 7.7002ZM19.5 11.9002L17.6 13.7002C17.5 13.8002 17.4 14.0002 17.4 14.2002L17.8 16.8002C17.9 17.3002 17.4 17.7002 16.9 17.4002L14.6 16.2002C14.4 16.1002 14.2 16.1002 14 16.2002L11.6 17.4002C11.2 17.6002 10.6 17.3002 10.7 16.8002L11.2 14.2002C11.2 14.0002 11.2 13.8002 11 13.7002L9.1 11.8002C8.7 11.4002 8.9 10.8002 9.4 10.8002L12 10.4002C12.2 10.4002 12.4 10.2002 12.5 10.1002L13.7 7.7002C13.9 7.2002 14.6 7.3002 14.8 7.7002L16 10.1002C16.1 10.3002 16.3 10.4002 16.5 10.4002L19.1 10.8002C19.6 10.9002 19.8 11.5002 19.5 11.9002Z" fill="white"/>
</g>
<defs>
<clipPath id="clip0_1_12151">
<rect width="176.2" height="31.2" fill="white"/>
</clipPath>
</defs>
</svg>
