<svg width="288" height="262" viewBox="0 0 288 262" fill="none" xmlns="http://www.w3.org/2000/svg">
<g clip-path="url(#clip0_22_3)">
<path d="M159.065 4.80566C88.4593 -4.0042 19.944 50.4568 13.7787 121.203C6.97008 199.21 78.3804 269.368 156.385 261.093C226.937 253.618 279.476 184.58 270.041 114.795C262.428 58.5725 215.947 11.8536 159.065 4.80566Z" stroke="#D0D0D0" stroke-miterlimit="10"/>
<path d="M140.408 1.06742C64.8162 -4.05832 -5.09295 65.2459 0.589851 140.317C6.05821 212.344 79.7738 272.892 154.883 259.971C224.953 247.957 267.36 176.891 258.299 113.62C250.365 58.1981 202.383 5.23208 140.408 1.06742Z" stroke="#D0D0D0" stroke-miterlimit="10"/>
<path d="M153.704 4.80566C83.098 -4.0042 14.5827 50.4568 8.41738 121.203C1.60875 199.21 73.019 269.368 151.024 261.093C221.576 253.618 274.115 184.58 264.68 114.795C257.067 58.5725 210.586 11.8536 153.704 4.80566Z" stroke="#D0D0D0" stroke-miterlimit="10"/>
<path d="M153.865 5.87278C83.6873 0.853828 18.8712 68.8767 24.1251 142.559C29.1646 213.252 97.6262 272.678 167.267 260.024C232.298 248.224 271.649 178.493 263.232 116.397C255.887 61.9355 211.336 9.98405 153.865 5.87278Z" stroke="#D0D0D0" stroke-miterlimit="10"/>
<path d="M175.685 4.27148C105.078 -4.53838 36.5632 49.9226 30.3979 120.669C23.5892 198.676 94.9995 268.834 173.004 260.559C243.556 253.083 296.096 184.046 286.66 114.261C279.047 58.0384 232.566 11.3194 175.685 4.27148Z" stroke="#D0D0D0" stroke-miterlimit="10"/>
<path d="M157.564 0.534218C81.9725 -4.59152 12.0633 64.7127 17.7461 139.783C23.2145 211.811 96.93 272.359 172.039 259.437C242.109 247.424 284.516 176.358 275.456 113.087C267.521 57.6648 219.539 4.69888 157.564 0.534218Z" stroke="#D0D0D0" stroke-miterlimit="10"/>
<path d="M165.017 5.33958C94.893 0.320625 30.0233 68.3434 35.2772 142.026C40.3167 212.718 108.778 272.145 178.419 259.491C243.45 247.691 282.801 177.959 274.384 115.863C267.039 61.4023 222.542 9.45085 165.017 5.33958Z" stroke="#D0D0D0" stroke-miterlimit="10"/>
</g>
<path fill-rule="evenodd" clip-rule="evenodd" d="M96.08 123.22C95.5005 123.025 92.9249 119.387 92.5386 118.802C88.8039 113.475 86.7434 107.173 86.4859 100.676C86.1639 91.8408 88.9327 83.2002 94.2771 76.2488C98.6556 70.3368 104.58 65.2694 110.954 60.9166C114.302 58.7077 117.908 56.9536 121.643 55.5893C123.703 54.8747 125.764 54.225 127.824 53.7702C128.983 53.5104 130.078 53.3155 131.173 53.1855C131.623 53.1206 134.779 52.8607 134.843 52.8607H135.229L136.903 52.7957H137.419C137.419 52.7957 141.282 52.9906 141.733 53.0556C150.297 53.9002 159.182 57.0836 166.587 60.9166C173.992 64.7496 182.942 71.3113 186.999 77.873C185.325 77.743 181.977 75.924 180.624 75.2093C178.693 74.0399 176.632 73.0654 174.507 72.2858C168.068 69.8171 167.489 69.4922 160.599 68.063C149.266 65.7241 139.415 65.5942 128.726 68.9075C119.84 71.5712 111.534 76.4437 106.447 82.6805C104.129 85.4741 101.102 90.1517 101.102 95.6089C101.102 98.0777 101.811 100.546 103.292 102.56C104.258 103.925 106.704 106.328 108.121 106.783C109.022 106.523 110.503 104.055 111.019 103.08C112.049 101.196 111.405 99.6369 110.697 97.8828C109.86 95.7389 110.053 94.4395 110.825 92.4255C111.469 90.9313 112.178 89.4371 113.079 88.0078C116.427 82.6155 120.935 78.0679 126.279 74.6896C132.074 70.9215 140.187 70.1419 146.755 69.882C160.663 69.4273 174.121 74.8845 183.908 84.8244C189.124 90.1517 191.764 93.0752 195.692 99.6369C196.4 101.066 197.301 102.43 198.267 103.73C199.555 105.159 202.131 104.704 201.487 102.301C201.036 100.611 200.521 98.9222 199.877 97.2981C199.233 95.7389 198.332 94.3096 198.138 92.2956C197.945 90.2816 198.396 90.9963 199.233 91.7759C201.809 94.0497 203.805 98.4675 206.187 101.391C206.831 102.171 208.827 104.25 209.793 104.509C209.793 101.131 209.6 99.442 208.698 96.7783C207.153 92.6204 204.964 88.7874 202.259 85.3442C201.616 84.4996 200.907 83.72 200.263 82.8754C199.619 82.0308 198.782 81.3162 198.074 80.4716C196.658 78.9124 195.177 77.4182 193.567 76.0539C191.893 74.6896 190.412 73.3253 188.738 71.961C185.454 69.2973 182.298 66.2439 178.628 63.97C171.352 59.5523 163.175 54.4199 153.838 52.0161C143.858 49.4824 134.135 48.378 123.381 50.327C113.079 52.276 102.39 58.9026 95.5649 64.4248C89.8986 68.9725 83.0732 77.4182 80.1756 84.6295C76.3766 94.1147 76.3122 105.289 80.4332 114.514C82.1717 118.412 84.683 122.505 87.5161 125.299C88.2888 126.078 88.9327 126.858 89.7698 127.508C90.3493 127.962 91.5727 129.522 92.5386 128.677C93.44 127.962 96.08 124.649 96.08 123.22Z" fill="#031B4E"/>
<path fill-rule="evenodd" clip-rule="evenodd" d="M191.055 136.669C191.634 136.734 194.274 140.567 194.661 141.086C197.945 145.699 200.585 152.78 200.649 159.017C200.778 170.516 197.558 177.013 193.115 183.38C189.316 188.837 182.169 195.009 176.567 198.777C173.283 200.986 169.677 202.805 166.007 204.169C162.981 205.339 159.761 206.183 156.542 206.703C156.155 206.768 153.129 207.093 153.065 207.093L151.97 207.158H151.519C139.478 207.418 128.918 203.325 121.192 199.427C117.071 197.348 113.143 194.814 109.537 191.955C107.798 190.591 106.124 189.032 104.514 187.408C103.549 186.433 100.651 183.25 100.2 182.145C101.874 182.21 105.416 184.224 106.639 184.874C112.95 188.252 119.711 190.591 126.729 191.955C131.043 192.865 138.191 193.839 143.02 193.71C156.349 193.385 172.961 187.018 180.752 177.143C183.006 174.284 186.097 169.802 186.032 164.28C185.968 156.354 179.658 153.82 179.078 153.04C178.048 153.95 177.147 154.989 176.503 156.224C175.537 157.783 175.344 158.822 176.052 160.836C176.631 162.395 177.34 163.435 176.953 165.514C176.631 167.008 176.052 168.437 175.279 169.737C172.961 174.349 168.518 179.482 164.59 182.47C154.932 189.877 141.474 192.345 125.892 188.252C120.934 187.018 116.233 184.874 112.048 181.886C109.73 180.326 107.541 178.637 105.416 176.818C103.162 174.999 101.488 172.985 99.492 170.971C97.5603 168.957 95.8218 166.748 94.2764 164.474C92.6667 162.071 91.3145 159.667 89.8335 157.133C89.1896 156.029 88.0306 154.47 86.3564 155.444C85.0042 156.159 85.9701 157.718 86.4208 159.797C87.3223 163.695 89.0608 163.955 89.0608 168.762C88.3525 168.567 86.4208 166.294 85.9701 165.644C84.2959 163.435 82.815 160.446 80.8189 158.108C80.3037 157.458 78.1789 155.314 77.3418 155.249C77.3418 161.356 79.0803 165.319 81.3984 169.152C83.5876 172.855 86.2276 176.298 89.1896 179.417C95.4998 185.784 102.132 191.501 109.988 196.243C121.707 203.39 138.448 210.666 153.129 210.666C169.613 210.666 179.014 205.274 191.57 195.724C197.687 191.111 203.997 182.73 207.152 175.129C211.209 165.449 210.758 154.599 206.766 145.309C205.028 141.346 202.645 137.643 199.683 134.46C198.91 133.68 198.138 133.03 197.429 132.251C194.854 129.652 194.596 131.536 193.63 132.446C192.858 133.225 192.214 134.07 191.763 135.044C191.312 135.694 191.248 136.279 191.055 136.669Z" fill="#031B4E"/>
<path fill-rule="evenodd" clip-rule="evenodd" d="M135.228 52.731H134.906C134.841 52.731 131.751 52.9909 131.235 53.0558C130.076 53.2507 129.046 53.3807 127.887 53.6405C125.762 54.0953 123.702 54.745 121.706 55.4596C117.907 56.8239 114.365 58.578 110.952 60.7869C104.578 65.1397 98.654 70.272 94.2754 76.1191C88.931 83.1355 86.1623 91.7761 86.4842 100.547C86.6774 107.043 88.8023 113.345 92.5369 118.672C92.9232 119.257 95.5632 122.895 96.0783 123.09C96.1427 122.96 97.5593 121.531 97.8169 121.336C99.5554 119.517 101.165 117.503 102.646 115.424C103.419 114.32 107.991 107.498 108.184 106.654C106.767 106.199 104.32 103.86 103.354 102.431C101.938 100.417 101.165 97.948 101.23 95.4792C101.23 90.087 104.256 85.4093 106.574 82.6158C111.661 76.314 119.967 71.4415 128.917 68.7128C139.606 65.3995 149.393 65.5295 160.726 67.8683C167.616 69.2975 168.195 69.6224 174.634 72.0911C176.759 72.8707 178.82 73.8452 180.751 75.0146C182.104 75.7293 185.388 77.6133 187.126 77.6783C183.069 71.1166 174.184 64.6199 166.714 60.7219C159.245 56.8239 150.295 53.7705 141.731 52.9259C141.216 52.8609 137.417 52.731 137.417 52.666H136.902L135.228 52.731Z" fill="#FB9B36"/>
<path fill-rule="evenodd" clip-rule="evenodd" d="M179.079 153.041C179.723 153.821 186.033 156.354 186.033 164.28C186.098 169.868 183.007 174.285 180.753 177.144C172.962 187.019 156.349 193.386 143.021 193.71C138.191 193.84 130.98 192.801 126.73 191.956C119.711 190.592 112.95 188.253 106.64 184.875C105.417 184.225 101.875 182.211 100.201 182.146C100.652 183.316 103.549 186.434 104.515 187.409C106.061 189.033 107.735 190.592 109.538 191.956C113.208 194.815 117.071 197.284 121.192 199.363C128.919 203.261 139.415 207.353 151.52 207.094H151.971L153.066 207.029C153.13 207.029 156.156 206.704 156.543 206.639C159.762 206.119 162.917 205.274 166.008 204.105C169.743 202.741 173.284 200.922 176.568 198.713C182.106 194.945 189.317 188.773 193.116 183.316C197.559 176.949 200.779 170.387 200.65 158.953C200.585 152.716 198.01 145.635 194.662 141.022C194.275 140.502 191.635 136.669 191.056 136.604C190.541 137.384 188.48 139.268 187.643 140.243C185.518 142.841 183.522 145.635 181.719 148.493C180.818 149.988 179.916 151.482 179.079 153.041Z" fill="#FFA300"/>
<path fill-rule="evenodd" clip-rule="evenodd" d="M122.029 143.23C122.029 144.53 124.154 143.425 125.313 143.165C130.207 141.996 135.422 143.23 139.286 146.479C143.6 149.987 145.789 152.196 150.683 155.184C152.164 156.029 153.645 156.743 155.255 157.328C156.993 158.043 163.432 160.641 165.235 160.641C166.523 160.576 167.553 159.472 167.618 158.173C167.618 156.548 163.754 152.78 162.273 150.961C161.629 150.182 160.921 149.532 160.341 148.752C158.41 146.349 153.516 143.425 150.747 141.736C145.403 138.488 139.994 137.123 137.354 130.172C136.968 129.132 136.646 128.028 136.453 126.859C136.26 125.559 136.324 123.74 135.165 123.74C134.521 123.74 132.203 127.638 131.688 128.353C130.593 129.912 129.563 131.666 128.468 133.225C127.696 134.33 122.029 142.581 122.029 143.23Z" fill="#3C8DFF"/>
<path fill-rule="evenodd" clip-rule="evenodd" d="M119.518 101.521C119.518 103.34 121.771 105.29 122.93 106.654C127.631 112.436 129.756 114.125 136.452 118.088C139.543 119.907 144.501 121.986 146.626 124.585C148.107 126.404 148.879 127.248 149.845 129.717C150.232 130.757 150.554 131.861 150.682 133.03C150.811 134.2 150.811 136.019 151.97 136.019C152.807 136.019 154.932 132.121 155.447 131.406C156.542 129.847 157.572 128.158 158.731 126.534C159.439 125.494 165.106 117.308 165.106 116.659C165.106 114.84 162.981 117.049 157.83 117.049C150.36 117.049 146.24 111.721 140.638 107.433C138.062 105.419 135.164 103.73 132.074 102.561C129.884 101.651 123.896 99.1826 121.642 99.1826C120.483 99.3775 119.582 100.352 119.518 101.521Z" fill="#3C8DFF"/>
<path fill-rule="evenodd" clip-rule="evenodd" d="M181.525 135.954L181.396 135.889L181.525 135.954ZM181.396 135.824L181.332 135.759L181.396 135.824ZM181.525 135.954C182.426 136.214 184.744 138.228 186.032 137.384C186.741 136.864 186.934 135.954 186.547 135.175C186.097 134.46 185.388 134.07 185.002 133.486C185.646 133.615 186.869 134.46 187.706 134.265C188.543 134.07 189.059 133.031 189.574 132.446C190.99 130.562 191.312 129.198 188.93 128.158C185.646 126.664 182.169 125.3 178.756 123.935C175.472 122.636 175.343 122.181 173.991 124C172.961 125.43 172.124 126.924 171.094 128.353C169.098 131.082 167.166 134.2 165.299 137.059C160.276 144.595 160.984 142.906 163.431 145.829C164.526 147.129 169.033 151.741 170.514 153.17C171.029 153.82 171.738 154.405 172.575 154.665C173.927 155.249 174.056 154.795 174.764 153.82C175.794 152.391 176.889 151.156 177.919 149.792C178.756 148.753 181.461 144.66 182.298 143.295C183.006 142.126 182.941 141.801 182.233 140.762C183.199 140.827 183.65 140.957 184.229 140.307C185.71 138.488 182.233 136.994 181.525 135.954Z" fill="#3C8DFF"/>
<path fill-rule="evenodd" clip-rule="evenodd" d="M105.931 124.131L105.738 124.001L105.931 124.131ZM105.674 124.001C104.836 123.806 102.325 121.662 101.166 122.571C99.1702 124.066 101.617 125.495 102.196 126.469C101.488 126.275 100.458 125.56 99.4921 125.625C98.7194 125.69 98.0755 126.859 97.6248 127.444C96.2082 129.328 95.8863 130.692 98.2687 131.797C101.553 133.291 105.094 134.655 108.442 136.02C113.465 138.034 111.662 137.644 116.04 131.602C118.036 128.873 119.968 125.755 121.836 122.961C126.278 116.27 126.536 116.919 123.767 114.191C121.385 111.787 119.067 109.253 116.684 106.849C116.105 106.2 115.396 105.68 114.559 105.355C113.207 104.706 113.014 105.355 112.37 106.2C111.34 107.629 110.245 108.863 109.215 110.228C108.249 111.527 107.155 113.151 106.253 114.516C104.321 117.439 103.806 117.504 104.965 119.258C103.034 118.803 101.939 120.298 102.905 121.662C103.613 122.312 105.287 123.416 105.674 124.001Z" fill="#3C8DFF"/>
<path fill-rule="evenodd" clip-rule="evenodd" d="M115.59 138.682C115.59 139.721 117.779 140.891 118.294 140.956C119.389 141.151 120.29 139.267 120.741 138.552C122.544 135.564 132.203 122.05 132.267 120.751C131.043 120.426 129.691 119.127 128.79 119.127C128.339 119.127 122.802 127.768 122.093 128.807C121.385 129.846 115.59 138.162 115.59 138.682Z" fill="#FFF700"/>
<path fill-rule="evenodd" clip-rule="evenodd" d="M158.215 140.763H158.344C158.795 140.763 161.885 135.89 162.336 135.24L169.934 123.806C170.32 123.221 171.737 121.532 171.479 120.818C171.286 120.233 169.355 118.934 168.646 118.934C167.745 118.934 166.779 120.753 166.328 121.467C165.749 122.442 165.04 123.416 164.396 124.391L156.541 136.085C156.283 136.475 154.674 138.813 154.996 139.138C154.996 139.138 156.476 139.853 156.67 139.918C156.927 140.113 157.764 140.763 158.215 140.763Z" fill="#FFF700"/>
<path fill-rule="evenodd" clip-rule="evenodd" d="M152.678 136.799C152.871 137.449 153.45 137.904 154.094 137.904C154.416 137.904 157.121 133.616 157.507 133.096C158.859 131.017 167.423 118.478 167.423 118.154C167.294 117.439 166.65 116.984 165.942 117.049C165.298 117.049 164.461 118.803 164.075 119.323L159.117 126.794C158.344 127.964 152.678 136.214 152.678 136.799Z" fill="#FFF700"/>
<path fill-rule="evenodd" clip-rule="evenodd" d="M119.84 141.801C119.84 142.256 120.548 142.841 121.256 142.841C121.965 142.841 122.802 141.087 123.124 140.632C123.703 139.787 124.218 139.008 124.798 138.098C125.893 136.409 126.923 134.785 128.082 133.096C129.241 131.406 130.271 129.782 131.366 128.158C131.945 127.249 134.521 123.805 134.521 122.961C134.521 122.506 133.748 121.986 133.362 121.856C132.847 121.726 132.525 122.506 132.267 122.896C131.688 123.805 131.108 124.65 130.464 125.559C129.241 127.378 128.017 129.068 126.858 130.887C126.086 132.186 119.84 141.216 119.84 141.801Z" fill="#FFF700"/>
<path fill-rule="evenodd" clip-rule="evenodd" d="M159.439 141.541C159.439 141.996 160.148 142.516 160.534 142.581C161.178 142.711 161.371 142.061 161.693 141.606C163.689 138.553 174.12 123.545 174.12 122.701C173.927 122.051 173.348 121.596 172.704 121.661C172.124 121.661 169.742 125.819 169.291 126.534C168.132 128.158 167.102 129.847 166.007 131.471C165.17 132.641 159.439 140.892 159.439 141.541Z" fill="#FFF700"/>
<path fill-rule="evenodd" clip-rule="evenodd" d="M114.301 138.228C115.138 138.228 117.199 134.329 117.843 133.42C119.002 131.796 120.032 130.172 121.191 128.482C122.092 127.053 127.759 119.127 127.759 118.283C127.759 117.763 126.922 117.243 126.471 117.243C125.956 117.243 123.187 121.726 122.736 122.376L115.589 133.03C115.203 133.615 113.013 136.603 113.142 137.188C113.271 137.773 113.722 138.163 114.301 138.228Z" fill="#FFF700"/>
<defs>
<clipPath id="clip0_22_3">
<rect width="288" height="262" fill="white"/>
</clipPath>
</defs>
</svg>
