<svg width="45" height="56" viewBox="0 0 45 56" fill="none" xmlns="http://www.w3.org/2000/svg">
<path fill-rule="evenodd" clip-rule="evenodd" d="M6.3823 25.6179C6.1856 25.5502 5.31139 24.2862 5.18026 24.083C3.91265 22.2322 3.21328 20.0427 3.12586 17.7856C3.01659 14.7158 3.95636 11.7138 5.77035 9.29866C7.25651 7.24464 9.26719 5.48406 11.4309 3.97177C12.5673 3.20434 13.7912 2.59491 15.0588 2.1209C15.7582 1.87262 16.4576 1.6469 17.1569 1.4889C17.5503 1.39861 17.9219 1.3309 18.2934 1.28576C18.4464 1.26318 19.5173 1.1729 19.5392 1.1729H19.6703L20.2385 1.15033H20.4134C20.4134 1.15033 21.7247 1.21804 21.8777 1.24061C24.7844 1.53404 27.8005 2.64005 30.3138 3.97177C32.8272 5.30349 35.8651 7.58322 37.2419 9.86294C36.6737 9.8178 35.5372 9.1858 35.0783 8.93751C34.4226 8.53122 33.7232 8.19265 33.002 7.92179C30.8165 7.06407 30.6198 6.95121 28.2813 6.45464C24.4348 5.64207 21.0909 5.59692 17.4629 6.74807C14.4469 7.6735 11.6276 9.36637 9.901 11.5332C9.11421 12.5038 8.08701 14.129 8.08701 16.025C8.08701 16.8827 8.32742 17.7404 8.83009 18.4401C9.15792 18.9141 9.98842 19.7493 10.4692 19.9073C10.7752 19.817 11.2779 18.9593 11.4527 18.6207C11.8024 17.9661 11.5839 17.4244 11.3434 16.815C11.0593 16.0701 11.1249 15.6187 11.3872 14.919C11.6057 14.3998 11.8461 13.8807 12.1521 13.3841C13.2886 11.5107 14.8184 9.93066 16.6324 8.75694C18.5994 7.44779 21.3532 7.17693 23.5824 7.08664C28.3031 6.92864 32.8709 8.82465 36.1929 12.2781C37.9632 14.129 38.8592 15.1447 40.1924 17.4244C40.4328 17.921 40.7388 18.395 41.0666 18.8464C41.5037 19.343 42.3779 19.185 42.1594 18.3498C42.0064 17.763 41.8315 17.1761 41.613 16.6118C41.3944 16.0701 41.0885 15.5735 41.0229 14.8738C40.9573 14.1741 41.1103 14.4224 41.3944 14.6933C42.2687 15.4833 42.9462 17.0181 43.7548 18.0338C43.9734 18.3047 44.6509 19.027 44.9787 19.1173C44.9787 17.9436 44.9131 17.3567 44.6072 16.4313C44.0826 14.9867 43.3396 13.655 42.4216 12.4587C42.2031 12.1652 41.9627 11.8944 41.7441 11.601C41.5256 11.3075 41.2415 11.0592 41.001 10.7658C40.5202 10.2241 40.0176 9.70494 39.4712 9.23094C38.9029 8.75694 38.4003 8.28294 37.832 7.80893C36.7174 6.8835 35.6465 5.82264 34.4008 5.03263C31.9311 3.49777 29.1555 1.71462 25.9865 0.879468C22.5989 -0.000822179 19.2988 -0.384539 15.6489 0.292608C12.1521 0.969754 8.52411 3.27205 6.20745 5.19063C4.28419 6.77064 1.96753 9.70494 0.984045 12.2104C-0.305416 15.5058 -0.327271 19.3881 1.07147 22.5933C1.66156 23.9476 2.51391 25.3696 3.47555 26.3402C3.73781 26.611 3.95636 26.8819 4.24048 27.1076C4.43718 27.2656 4.85243 27.8073 5.18026 27.5139C5.48623 27.2656 6.3823 26.1145 6.3823 25.6179Z" fill="#031B4E"/>
<path fill-rule="evenodd" clip-rule="evenodd" d="M38.6179 30.2914C38.8146 30.314 39.7107 31.6457 39.8418 31.8262C40.9564 33.4288 41.8525 35.8891 41.8743 38.056C41.918 42.0512 40.8253 44.3083 39.3173 46.5203C38.0278 48.4163 35.6019 50.5606 33.7005 51.8698C32.5858 52.6372 31.3619 53.2692 30.1162 53.7432C29.089 54.1495 27.9962 54.4429 26.9035 54.6235C26.7723 54.6461 25.7451 54.7589 25.7233 54.7589L25.3517 54.7815H25.1988C21.1118 54.8718 17.5276 53.4498 14.9049 52.0955C13.5062 51.3732 12.173 50.4929 10.9491 49.4998C10.359 49.0258 9.79079 48.4841 9.24441 47.9198C8.91658 47.5812 7.93309 46.4752 7.7801 46.0915C8.34834 46.114 9.55038 46.8138 9.96563 47.0395C12.1074 48.2132 14.4023 49.0258 16.7845 49.4998C18.2488 49.8158 20.6747 50.1543 22.3139 50.1092C26.8379 49.9963 32.4766 47.7843 35.121 44.3535C35.886 43.3603 36.935 41.8029 36.9132 39.8843C36.8913 37.1306 34.7495 36.2503 34.5528 35.9794C34.2031 36.2954 33.8971 36.6566 33.6786 37.0854C33.3508 37.6271 33.2852 37.9883 33.5256 38.688C33.7223 39.2297 33.9627 39.5909 33.8316 40.3132C33.7223 40.8323 33.5256 41.3289 33.2633 41.7803C32.4766 43.3829 30.9685 45.166 29.6354 46.2043C26.3571 48.7775 21.7893 49.6352 16.5004 48.2132C14.8175 47.7843 13.2221 47.0395 11.8015 46.0012C11.0147 45.4595 10.2716 44.8726 9.55038 44.2406C8.78545 43.6086 8.21721 42.9089 7.5397 42.2092C6.88404 41.5094 6.29395 40.742 5.76942 39.952C5.22304 39.1169 4.76408 38.2817 4.26141 37.4014C4.04285 37.0177 3.64946 36.476 3.08122 36.8146C2.62226 37.0628 2.95009 37.6046 3.10308 38.3269C3.40905 39.6811 3.99914 39.7714 3.99914 41.4417C3.75873 41.374 3.10308 40.584 2.95009 40.3583C2.38185 39.5909 1.87918 38.5526 1.20167 37.74C1.02683 37.5143 0.305603 36.7694 0.0214844 36.7468C0.0214844 38.8686 0.611577 40.2454 1.39837 41.5772C2.14145 42.8637 3.03751 44.06 4.04285 45.1435C6.18467 47.3555 8.43576 49.3418 11.1021 50.9895C15.0798 53.4724 20.7621 56.0004 25.7451 56.0004C31.3401 56.0004 34.531 54.1269 38.7927 50.8089C40.869 49.2063 43.0108 46.2946 44.0817 43.6537C45.4586 40.2906 45.3056 36.5211 43.9506 33.2934C43.3605 31.9165 42.5518 30.63 41.5465 29.5239C41.2842 29.2531 41.022 29.0274 40.7816 28.7565C39.9073 27.8537 39.8199 28.5082 39.4921 28.8242C39.2298 29.0951 39.0113 29.3885 38.8583 29.7271C38.7053 29.9528 38.6835 30.156 38.6179 30.2914Z" fill="#031B4E"/>
<path fill-rule="evenodd" clip-rule="evenodd" d="M19.6702 1.12902H19.5609C19.5391 1.12902 18.49 1.2193 18.3152 1.24187C17.9218 1.30959 17.5721 1.35473 17.1787 1.44502C16.4575 1.60302 15.7581 1.82873 15.0806 2.07702C13.7911 2.55102 12.5891 3.16046 11.4308 3.92789C9.26708 5.44018 7.2564 7.22333 5.77024 9.25477C3.95625 11.6925 3.01647 14.6945 3.12575 17.7417C3.19132 19.9988 3.91254 22.1883 5.18015 24.0391C5.31128 24.2423 6.20734 25.5063 6.38218 25.574C6.40404 25.5289 6.88486 25.0323 6.97228 24.9646C7.56237 24.3326 8.10875 23.6328 8.61142 22.9106C8.87369 22.5268 10.4254 20.1568 10.491 19.8634C10.0102 19.7054 9.17966 18.8928 8.85183 18.3962C8.37101 17.6965 8.10875 16.8388 8.13061 15.9811C8.13061 14.1077 9.1578 12.4825 9.94459 11.5119C11.6712 9.32249 14.4905 7.62962 17.5284 6.68162C21.1563 5.53047 24.4783 5.57561 28.3249 6.38819C30.6634 6.88476 30.8601 6.99762 33.0456 7.85534C33.7668 8.12619 34.4662 8.46477 35.1219 8.87106C35.5808 9.11934 36.6954 9.77392 37.2855 9.79649C35.9087 7.51676 32.8926 5.25961 30.3574 3.90532C27.8222 2.55102 24.7843 1.49016 21.8776 1.19673C21.7027 1.17416 20.4133 1.12902 20.4133 1.10645H20.2384L19.6702 1.12902Z" fill="#FB9B36"/>
<path fill-rule="evenodd" clip-rule="evenodd" d="M34.553 35.9792C34.7715 36.25 36.9134 37.1303 36.9134 39.884C36.9352 41.8252 35.8862 43.3601 35.1212 44.3532C32.4767 47.7841 26.8381 49.9961 22.314 50.1089C20.6749 50.1541 18.2271 49.7929 16.7846 49.4995C14.4024 49.0255 12.1076 48.2129 9.9658 47.0392C9.55055 46.8135 8.34851 46.1138 7.78027 46.0912C7.93326 46.4975 8.91675 47.5809 9.24458 47.9195C9.7691 48.4838 10.3373 49.0255 10.9493 49.4995C12.195 50.4927 13.5064 51.3504 14.9051 52.0727C17.5277 53.427 21.0901 54.849 25.1989 54.7587H25.3519L25.7235 54.7361C25.7453 54.7361 26.7725 54.6232 26.9036 54.6007C27.9964 54.4201 29.0673 54.1267 30.1164 53.7204C31.384 53.2464 32.586 52.6144 33.7006 51.847C35.5802 50.5378 38.028 48.3935 39.3174 46.4975C40.8254 44.2855 41.9182 42.0058 41.8745 38.0332C41.8526 35.8663 40.9784 33.406 39.842 31.8034C39.7108 31.6228 38.8148 30.2911 38.6181 30.2686C38.4432 30.5394 37.7439 31.194 37.4597 31.5326C36.7385 32.4354 36.061 33.406 35.449 34.3991C35.1431 34.9183 34.8371 35.4374 34.553 35.9792Z" fill="#FFA300"/>
<path fill-rule="evenodd" clip-rule="evenodd" d="M15.1895 32.5713C15.1895 33.0227 15.9107 32.639 16.3041 32.5487C17.9651 32.1424 19.7353 32.5713 21.0467 33.6998C22.511 34.9187 23.254 35.6861 24.915 36.7244C25.4177 37.0179 25.9204 37.2661 26.4668 37.4693C27.0569 37.7176 29.2424 38.6204 29.8543 38.6204C30.2914 38.5979 30.6411 38.2142 30.663 37.7627C30.663 37.1984 29.3517 35.8893 28.849 35.2573C28.6304 34.9864 28.39 34.7607 28.1933 34.4898C27.5377 33.6547 25.8767 32.639 24.9369 32.0521C23.1229 30.9235 21.2871 30.4495 20.391 28.0344C20.2599 27.6732 20.1506 27.2895 20.085 26.8832C20.0195 26.4318 20.0413 25.7998 19.6479 25.7998C19.4294 25.7998 18.6426 27.1541 18.4677 27.4024C18.0962 27.9441 17.7465 28.5535 17.375 29.0952C17.1127 29.479 15.1895 32.3456 15.1895 32.5713Z" fill="#3C8DFF"/>
<path fill-rule="evenodd" clip-rule="evenodd" d="M14.3369 18.0802C14.3369 18.7122 15.1018 19.3893 15.4952 19.8633C17.0907 21.8722 17.8119 22.459 20.0849 23.8359C21.1339 24.4679 22.8168 25.1902 23.538 26.093C24.0407 26.7251 24.3029 27.0185 24.6307 27.8762C24.7619 28.2373 24.8712 28.6211 24.9149 29.0273C24.9586 29.4336 24.9586 30.0656 25.352 30.0656C25.6361 30.0656 26.3573 28.7113 26.5322 28.4631C26.9037 27.9213 27.2534 27.3345 27.6468 26.7702C27.8872 26.409 29.8104 23.565 29.8104 23.3393C29.8104 22.7073 29.0892 23.4748 27.3408 23.4748C24.8056 23.4748 23.4069 21.6239 21.5054 20.1342C20.6312 19.4344 19.6477 18.8476 18.5987 18.4413C17.8556 18.1253 15.8231 17.2676 15.0581 17.2676C14.6647 17.3353 14.3588 17.6739 14.3369 18.0802Z" fill="#3C8DFF"/>
<path fill-rule="evenodd" clip-rule="evenodd" d="M35.3835 30.043L35.3398 30.0204L35.3835 30.043ZM35.3398 29.9979L35.3179 29.9753L35.3398 29.9979ZM35.3835 30.043C35.6894 30.1333 36.4762 30.833 36.9133 30.5396C37.1538 30.359 37.2193 30.043 37.0882 29.7722C36.9352 29.5239 36.6948 29.3884 36.5637 29.1853C36.7822 29.2304 37.1975 29.5239 37.4816 29.4562C37.7657 29.3884 37.9405 29.0273 38.1154 28.8241C38.5962 28.1696 38.7055 27.6956 37.8968 27.3344C36.7822 26.8153 35.602 26.3413 34.4437 25.8673C33.3291 25.4158 33.2854 25.2578 32.8264 25.8898C32.4767 26.3864 32.1926 26.9056 31.8429 27.4021C31.1654 28.3501 30.5098 29.4336 29.8759 30.4267C28.1712 33.045 28.4116 32.4582 29.2421 33.4739C29.6137 33.9253 31.1436 35.5279 31.6462 36.0245C31.8211 36.2502 32.0615 36.4533 32.3456 36.5436C32.8046 36.7468 32.8483 36.5888 33.0887 36.2502C33.4384 35.7536 33.8099 35.3247 34.1596 34.8507C34.4437 34.4896 35.3616 33.0676 35.6457 32.5936C35.8861 32.1873 35.8643 32.0745 35.6239 31.7133C35.9517 31.7359 36.1047 31.781 36.3014 31.5553C36.8041 30.9233 35.6239 30.4042 35.3835 30.043Z" fill="#3C8DFF"/>
<path fill-rule="evenodd" clip-rule="evenodd" d="M9.72573 25.9354L9.66016 25.8902L9.72573 25.9354ZM9.6383 25.8902C9.35419 25.8225 8.50183 25.0776 8.10843 25.3936C7.43092 25.9128 8.26142 26.4094 8.45812 26.7479C8.21771 26.6802 7.86803 26.4319 7.5402 26.4545C7.27793 26.4771 7.05938 26.8834 6.9064 27.0865C6.42558 27.7411 6.3163 28.2151 7.12495 28.5988C8.23957 29.1179 9.44161 29.5919 10.5781 30.0659C12.2828 30.7657 11.6708 30.6302 13.157 28.5311C13.8345 27.5831 14.4902 26.4996 15.124 25.5291C16.632 23.2042 16.7194 23.4299 15.7796 22.4819C14.971 21.6468 14.1842 20.7665 13.3756 19.9313C13.1789 19.7056 12.9385 19.525 12.6543 19.4122C12.1954 19.1865 12.1298 19.4122 11.9113 19.7056C11.5616 20.2022 11.19 20.631 10.8403 21.105C10.5125 21.5565 10.141 22.1208 9.835 22.5948C9.17934 23.6105 9.0045 23.6331 9.3979 24.2425C8.74224 24.0845 8.3707 24.6036 8.69853 25.0776C8.93894 25.3034 9.50717 25.6871 9.6383 25.8902Z" fill="#3C8DFF"/>
<path fill-rule="evenodd" clip-rule="evenodd" d="M13.0039 30.9913C13.0039 31.3524 13.747 31.7587 13.9218 31.7813C14.2934 31.849 14.5993 31.1944 14.7523 30.9462C15.3643 29.9079 18.6426 25.213 18.6644 24.7616C18.2492 24.6487 17.7902 24.1973 17.4842 24.1973C17.3312 24.1973 15.4517 27.1993 15.2113 27.5604C14.9709 27.9216 13.0039 30.8107 13.0039 30.9913Z" fill="#FFF700"/>
<path fill-rule="evenodd" clip-rule="evenodd" d="M27.4724 31.7139H27.5161C27.6691 31.7139 28.7181 30.0211 28.8711 29.7953L31.45 25.8227C31.5812 25.6196 32.062 25.0327 31.9746 24.7845C31.909 24.5813 31.2533 24.1299 31.0129 24.1299C30.707 24.1299 30.3791 24.7619 30.2261 25.0102C30.0294 25.3487 29.789 25.6873 29.5705 26.0259L26.9041 30.0888C26.8167 30.2242 26.2703 31.0368 26.3796 31.1496C26.3796 31.1496 26.8823 31.3979 26.9479 31.4205C27.0353 31.4882 27.3194 31.7139 27.4724 31.7139Z" fill="#FFF700"/>
<path fill-rule="evenodd" clip-rule="evenodd" d="M25.5928 30.3365C25.6583 30.5623 25.855 30.7203 26.0736 30.7203C26.1829 30.7203 27.1008 29.2305 27.2319 29.05C27.6909 28.3277 30.5976 23.9714 30.5976 23.8585C30.5539 23.6102 30.3354 23.4522 30.095 23.4748C29.8764 23.4748 29.5923 24.0842 29.4612 24.2648L27.7783 26.8605C27.516 27.2668 25.5928 30.1334 25.5928 30.3365Z" fill="#FFF700"/>
<path fill-rule="evenodd" clip-rule="evenodd" d="M14.4463 32.0741C14.4463 32.2321 14.6867 32.4353 14.9271 32.4353C15.1675 32.4353 15.4516 31.8258 15.5609 31.6678C15.7576 31.3744 15.9324 31.1036 16.1291 30.7876C16.5007 30.2007 16.8504 29.6364 17.2438 29.0495C17.6372 28.4627 17.9868 27.8984 18.3584 27.3341C18.5551 27.0181 19.4293 25.8218 19.4293 25.5284C19.4293 25.3704 19.167 25.1898 19.0359 25.1447C18.8611 25.0995 18.7518 25.3704 18.6644 25.5058C18.4677 25.8218 18.271 26.1152 18.0524 26.4312C17.6372 27.0632 17.2219 27.6501 16.8285 28.2821C16.5663 28.7335 14.4463 31.871 14.4463 32.0741Z" fill="#FFF700"/>
<path fill-rule="evenodd" clip-rule="evenodd" d="M27.8877 31.9842C27.8877 32.1422 28.1281 32.3228 28.2592 32.3454C28.4778 32.3905 28.5434 32.1648 28.6526 32.0068C29.3301 30.9459 32.8707 25.7319 32.8707 25.4385C32.8051 25.2128 32.6084 25.0548 32.3899 25.0773C32.1932 25.0773 31.3845 26.5219 31.2316 26.7702C30.8382 27.3345 30.4885 27.9214 30.1169 28.4856C29.8328 28.8919 27.8877 31.7585 27.8877 31.9842Z" fill="#FFF700"/>
<path fill-rule="evenodd" clip-rule="evenodd" d="M12.5671 30.8336C12.8512 30.8336 13.5506 29.4793 13.7692 29.1633C14.1626 28.599 14.5122 28.0347 14.9056 27.4478C15.2116 26.9513 17.1349 24.1975 17.1349 23.9041C17.1349 23.7235 16.8508 23.543 16.6978 23.543C16.5229 23.543 15.5831 25.1004 15.4302 25.3261L13.0042 29.0279C12.8731 29.231 12.13 30.2693 12.1737 30.4724C12.2174 30.6756 12.3704 30.811 12.5671 30.8336Z" fill="#FFF700"/>
</svg>
