<svg width="16" height="12" viewBox="0 0 16 12" fill="none" xmlns="http://www.w3.org/2000/svg">
<path d="M15.6661 1.84554C15.575 1.50632 15.3964 1.19697 15.1482 0.948457C14.9 0.699941 14.5909 0.520974 14.2518 0.429464C13.0036 0.0937501 8 0.09375 8 0.09375C8 0.09375 2.99643 0.0937499 1.74821 0.427679C1.40897 0.518891 1.09969 0.69776 0.851439 0.946321C0.603191 1.19488 0.424713 1.50439 0.333929 1.84375C-6.81196e-08 3.09375 0 5.70089 0 5.70089C0 5.70089 -6.81196e-08 8.30804 0.333929 9.55625C0.517857 10.2455 1.06071 10.7884 1.74821 10.9723C2.99643 11.308 8 11.308 8 11.308C8 11.308 13.0036 11.308 14.2518 10.9723C14.9411 10.7884 15.4821 10.2455 15.6661 9.55625C16 8.30804 16 5.70089 16 5.70089C16 5.70089 16 3.09375 15.6661 1.84554ZM6.41071 8.09375V3.30804L10.5536 5.68304L6.41071 8.09375Z" fill="#4BA998"/>
</svg>
